<svg xmlns="http://www.w3.org/2000/svg" xmlns:xlink="http://www.w3.org/1999/xlink" width="2000" zoomAndPan="magnify" viewBox="0 0 1500 1499.999933" height="2000" preserveAspectRatio="xMidYMid meet" version="1.0"><defs><g/><clipPath id="7b768d3209"><path d="M 745.664062 424.167969 L 757.53125 424.167969 L 757.53125 428.871094 L 745.664062 428.871094 Z M 745.664062 424.167969 " clip-rule="nonzero"/></clipPath><clipPath id="b28edd28e5"><path d="M 747.316406 424.175781 C 755.402344 424.496094 756.605469 424.816406 757.085938 425.457031 C 757.484375 425.9375 757.644531 426.820312 757.40625 427.300781 C 757.003906 428.019531 755.324219 428.582031 754.203125 428.820312 C 752.839844 428.980469 750.757812 428.660156 749.796875 428.261719 C 749.238281 428.019531 748.835938 427.699219 748.675781 427.21875 C 748.597656 426.738281 748.917969 425.699219 749.316406 425.378906 C 749.636719 425.136719 750.359375 425.058594 750.757812 425.21875 C 751.238281 425.378906 751.71875 425.9375 751.800781 426.339844 C 751.878906 426.820312 751.398438 427.859375 751 428.101562 C 750.519531 428.339844 749.398438 428.179688 749.078125 427.78125 C 748.675781 427.460938 748.515625 426.339844 748.835938 425.859375 C 749.316406 425.21875 752.039062 425.21875 753.082031 425.296875 C 753.800781 425.296875 754.523438 425.378906 754.683594 425.699219 C 754.84375 426.019531 754.601562 427.058594 754.042969 427.460938 C 752.921875 428.179688 747.796875 427.941406 746.59375 427.21875 C 745.953125 426.820312 745.632812 426.097656 745.714844 425.617188 C 745.792969 425.058594 747.316406 424.175781 747.316406 424.175781 " clip-rule="nonzero"/></clipPath><clipPath id="f18da63785"><path d="M 0.664062 0.167969 L 12.53125 0.167969 L 12.53125 4.871094 L 0.664062 4.871094 Z M 0.664062 0.167969 " clip-rule="nonzero"/></clipPath><clipPath id="72306b9ed1"><path d="M 2.316406 0.175781 C 10.402344 0.496094 11.605469 0.816406 12.085938 1.457031 C 12.484375 1.9375 12.644531 2.820312 12.40625 3.300781 C 12.003906 4.019531 10.324219 4.582031 9.203125 4.820312 C 7.839844 4.980469 5.757812 4.660156 4.796875 4.261719 C 4.238281 4.019531 3.835938 3.699219 3.675781 3.21875 C 3.597656 2.738281 3.917969 1.699219 4.316406 1.378906 C 4.636719 1.136719 5.359375 1.058594 5.757812 1.21875 C 6.238281 1.378906 6.71875 1.9375 6.800781 2.339844 C 6.878906 2.820312 6.398438 3.859375 6 4.101562 C 5.519531 4.339844 4.398438 4.179688 4.078125 3.78125 C 3.675781 3.460938 3.515625 2.339844 3.835938 1.859375 C 4.316406 1.21875 7.039062 1.21875 8.082031 1.296875 C 8.800781 1.296875 9.523438 1.378906 9.683594 1.699219 C 9.84375 2.019531 9.601562 3.058594 9.042969 3.460938 C 7.921875 4.179688 2.796875 3.941406 1.59375 3.21875 C 0.953125 2.820312 0.632812 2.097656 0.714844 1.617188 C 0.792969 1.058594 2.316406 0.175781 2.316406 0.175781 " clip-rule="nonzero"/></clipPath><clipPath id="159e6731b7"><rect x="0" width="13" y="0" height="5"/></clipPath><clipPath id="9018c75991"><path d="M 743.917969 411.652344 L 759.046875 411.652344 L 759.046875 426.128906 L 743.917969 426.128906 Z M 743.917969 411.652344 " clip-rule="nonzero"/></clipPath><clipPath id="0d295e4345"><path d="M 749.796875 420.492188 C 758.445312 420.972656 759.007812 421.933594 759.007812 422.496094 C 758.925781 422.976562 758.445312 423.375 757.964844 423.617188 C 757.40625 423.9375 756.683594 423.855469 755.644531 423.855469 C 753.242188 423.855469 745.394531 424.015625 744.273438 422.894531 C 743.871094 422.496094 743.953125 421.855469 744.113281 421.453125 C 744.273438 421.054688 744.59375 420.652344 745.234375 420.414062 C 746.835938 419.933594 753 420.652344 754.921875 421.054688 C 755.722656 421.214844 756.203125 421.214844 756.605469 421.613281 C 757.085938 421.933594 757.40625 422.496094 757.40625 423.054688 C 757.484375 423.695312 757.324219 424.65625 756.84375 425.136719 C 756.125 425.777344 754.363281 426.019531 752.839844 426.097656 C 750.839844 426.097656 746.835938 425.777344 745.792969 424.816406 C 745.234375 424.335938 745.074219 423.535156 745.3125 422.734375 C 745.554688 421.535156 748.035156 420.09375 748.917969 418.492188 C 749.71875 416.808594 749.558594 413.847656 750.277344 412.726562 C 750.679688 412.085938 751.320312 411.605469 751.800781 411.683594 C 752.359375 411.683594 753.082031 412.566406 753.402344 413.445312 C 753.960938 414.96875 753.242188 420.652344 752.679688 420.734375 C 752.441406 420.8125 751.960938 420.011719 751.71875 419.371094 C 751.320312 418.410156 750.597656 416.167969 751 415.527344 C 751.320312 415.046875 752.28125 414.726562 752.761719 414.886719 C 753.242188 414.96875 753.882812 415.769531 753.882812 416.25 C 753.882812 416.808594 752.921875 417.929688 752.359375 418.011719 C 751.878906 418.089844 751 417.371094 750.757812 416.96875 C 750.597656 416.488281 750.757812 415.769531 751.078125 415.449219 C 751.398438 415.046875 752.441406 414.726562 752.921875 414.96875 C 753.402344 415.128906 753.882812 416.089844 753.882812 416.570312 C 753.882812 417.050781 753.480469 417.691406 753.082031 417.851562 C 752.601562 418.011719 751.558594 417.851562 751.160156 417.53125 C 750.839844 417.210938 750.597656 416.488281 750.757812 416.089844 C 750.839844 415.609375 751.480469 414.96875 751.960938 414.886719 C 752.441406 414.726562 753.242188 415.128906 753.640625 415.527344 C 754.203125 416.167969 754.601562 417.371094 754.761719 418.410156 C 755.003906 419.53125 755.082031 421.292969 754.601562 422.09375 C 754.28125 422.65625 753.5625 423.136719 752.921875 423.214844 C 752.039062 423.296875 750.359375 422.734375 749.71875 421.773438 C 748.917969 420.574219 749.316406 417.449219 749.636719 415.6875 C 749.957031 414.167969 750.679688 411.925781 751.398438 411.683594 C 751.960938 411.523438 753.082031 412.324219 753.402344 413.046875 C 753.800781 413.925781 753.160156 415.769531 752.761719 417.050781 C 752.441406 418.410156 751.878906 419.851562 751.078125 421.054688 C 750.359375 422.253906 748.355469 424.417969 748.035156 424.257812 C 747.875 424.175781 747.957031 422.816406 748.4375 422.414062 C 749.238281 421.855469 752.839844 422.253906 753.882812 422.894531 C 754.441406 423.214844 755.003906 424.015625 754.84375 424.257812 C 754.363281 424.976562 745.3125 424.097656 744.273438 422.894531 C 743.871094 422.414062 744.03125 421.535156 744.273438 421.054688 C 744.511719 420.734375 744.914062 420.574219 745.632812 420.414062 C 747.554688 419.933594 755.644531 419.53125 757.644531 420.574219 C 758.445312 420.972656 759.007812 421.933594 759.007812 422.496094 C 758.925781 422.976562 758.367188 423.457031 757.644531 423.695312 C 756.042969 424.257812 750.839844 424.417969 749.398438 423.617188 C 748.675781 423.214844 748.117188 422.414062 748.195312 421.855469 C 748.277344 421.375 749.796875 420.492188 749.796875 420.492188 " clip-rule="nonzero"/></clipPath><clipPath id="fd246053dc"><path d="M 0.917969 0.652344 L 16.046875 0.652344 L 16.046875 15.128906 L 0.917969 15.128906 Z M 0.917969 0.652344 " clip-rule="nonzero"/></clipPath><clipPath id="2e4b99b362"><path d="M 6.796875 9.492188 C 15.445312 9.972656 16.007812 10.933594 16.007812 11.496094 C 15.925781 11.976562 15.445312 12.375 14.964844 12.617188 C 14.40625 12.9375 13.683594 12.855469 12.644531 12.855469 C 10.242188 12.855469 2.394531 13.015625 1.273438 11.894531 C 0.871094 11.496094 0.953125 10.855469 1.113281 10.453125 C 1.273438 10.054688 1.59375 9.652344 2.234375 9.414062 C 3.835938 8.933594 10 9.652344 11.921875 10.054688 C 12.722656 10.214844 13.203125 10.214844 13.605469 10.613281 C 14.085938 10.933594 14.40625 11.496094 14.40625 12.054688 C 14.484375 12.695312 14.324219 13.65625 13.84375 14.136719 C 13.125 14.777344 11.363281 15.019531 9.839844 15.097656 C 7.839844 15.097656 3.835938 14.777344 2.792969 13.816406 C 2.234375 13.335938 2.074219 12.535156 2.3125 11.734375 C 2.554688 10.535156 5.035156 9.09375 5.917969 7.492188 C 6.71875 5.808594 6.558594 2.847656 7.277344 1.726562 C 7.679688 1.085938 8.320312 0.605469 8.800781 0.683594 C 9.359375 0.683594 10.082031 1.566406 10.402344 2.445312 C 10.960938 3.96875 10.242188 9.652344 9.679688 9.734375 C 9.441406 9.8125 8.960938 9.011719 8.71875 8.371094 C 8.320312 7.410156 7.597656 5.167969 8 4.527344 C 8.320312 4.046875 9.28125 3.726562 9.761719 3.886719 C 10.242188 3.96875 10.882812 4.769531 10.882812 5.25 C 10.882812 5.808594 9.921875 6.929688 9.359375 7.011719 C 8.878906 7.089844 8 6.371094 7.757812 5.96875 C 7.597656 5.488281 7.757812 4.769531 8.078125 4.449219 C 8.398438 4.046875 9.441406 3.726562 9.921875 3.96875 C 10.402344 4.128906 10.882812 5.089844 10.882812 5.570312 C 10.882812 6.050781 10.480469 6.691406 10.082031 6.851562 C 9.601562 7.011719 8.558594 6.851562 8.160156 6.53125 C 7.839844 6.210938 7.597656 5.488281 7.757812 5.089844 C 7.839844 4.609375 8.480469 3.96875 8.960938 3.886719 C 9.441406 3.726562 10.242188 4.128906 10.640625 4.527344 C 11.203125 5.167969 11.601562 6.371094 11.761719 7.410156 C 12.003906 8.53125 12.082031 10.292969 11.601562 11.09375 C 11.28125 11.65625 10.5625 12.136719 9.921875 12.214844 C 9.039062 12.296875 7.359375 11.734375 6.71875 10.773438 C 5.917969 9.574219 6.316406 6.449219 6.636719 4.6875 C 6.957031 3.167969 7.679688 0.925781 8.398438 0.683594 C 8.960938 0.523438 10.082031 1.324219 10.402344 2.046875 C 10.800781 2.925781 10.160156 4.769531 9.761719 6.050781 C 9.441406 7.410156 8.878906 8.851562 8.078125 10.054688 C 7.359375 11.253906 5.355469 13.417969 5.035156 13.257812 C 4.875 13.175781 4.957031 11.816406 5.4375 11.414062 C 6.238281 10.855469 9.839844 11.253906 10.882812 11.894531 C 11.441406 12.214844 12.003906 13.015625 11.84375 13.257812 C 11.363281 13.976562 2.3125 13.097656 1.273438 11.894531 C 0.871094 11.414062 1.03125 10.535156 1.273438 10.054688 C 1.511719 9.734375 1.914062 9.574219 2.632812 9.414062 C 4.554688 8.933594 12.644531 8.53125 14.644531 9.574219 C 15.445312 9.972656 16.007812 10.933594 16.007812 11.496094 C 15.925781 11.976562 15.367188 12.457031 14.644531 12.695312 C 13.042969 13.257812 7.839844 13.417969 6.398438 12.617188 C 5.675781 12.214844 5.117188 11.414062 5.195312 10.855469 C 5.277344 10.375 6.796875 9.492188 6.796875 9.492188 " clip-rule="nonzero"/></clipPath><clipPath id="7d30beff99"><rect x="0" width="17" y="0" height="16"/></clipPath><clipPath id="d20fe554d8"><path d="M 746.222656 426.246094 L 758.480469 426.246094 L 758.480469 429.953125 L 746.222656 429.953125 Z M 746.222656 426.246094 " clip-rule="nonzero"/></clipPath><clipPath id="6e7a0fb1b1"><path d="M 747.714844 426.257812 C 753.882812 428.339844 754.121094 429.21875 753.960938 429.539062 C 753.882812 429.78125 753.5625 429.859375 753.242188 429.941406 C 752.199219 430.019531 747.957031 429.460938 747.394531 428.820312 C 747.234375 428.5 747.316406 427.941406 747.636719 427.78125 C 748.195312 427.300781 751 428.421875 752.679688 428.257812 C 754.363281 428.101562 756.765625 426.5 757.644531 426.738281 C 758.125 426.898438 758.527344 427.378906 758.445312 427.621094 C 758.445312 427.941406 757.886719 428.421875 757.644531 428.339844 C 757.40625 428.339844 756.84375 427.378906 757.003906 427.140625 C 757.085938 426.980469 758.125 426.820312 758.285156 427.058594 C 758.445312 427.21875 758.125 428.179688 757.886719 428.339844 C 757.644531 428.421875 757.003906 428.019531 756.925781 427.78125 C 756.84375 427.460938 757.246094 426.820312 757.484375 426.738281 C 757.804688 426.738281 758.367188 427.058594 758.445312 427.300781 C 758.527344 427.539062 758.367188 427.941406 758.046875 428.257812 C 757.164062 429.058594 752.839844 429.78125 750.757812 429.78125 C 749.15625 429.699219 747.15625 429.300781 746.59375 428.820312 C 746.273438 428.5 746.195312 428.101562 746.273438 427.859375 C 746.355469 427.539062 746.753906 427.300781 747.316406 427.21875 C 748.355469 426.980469 751.878906 427.140625 752.601562 427.859375 C 753 428.257812 753.160156 429.21875 752.839844 429.460938 C 752.359375 429.941406 748.195312 428.5 747.316406 427.859375 C 746.996094 427.539062 746.753906 427.140625 746.835938 426.898438 C 746.914062 426.660156 747.714844 426.257812 747.714844 426.257812 " clip-rule="nonzero"/></clipPath><clipPath id="8b2a1089f3"><path d="M 0.222656 0.246094 L 12.480469 0.246094 L 12.480469 3.953125 L 0.222656 3.953125 Z M 0.222656 0.246094 " clip-rule="nonzero"/></clipPath><clipPath id="971bb9c438"><path d="M 1.714844 0.257812 C 7.882812 2.339844 8.121094 3.21875 7.960938 3.539062 C 7.882812 3.78125 7.5625 3.859375 7.242188 3.941406 C 6.199219 4.019531 1.957031 3.460938 1.394531 2.820312 C 1.234375 2.5 1.316406 1.941406 1.636719 1.78125 C 2.195312 1.300781 5 2.421875 6.679688 2.257812 C 8.363281 2.101562 10.765625 0.5 11.644531 0.738281 C 12.125 0.898438 12.527344 1.378906 12.445312 1.621094 C 12.445312 1.941406 11.886719 2.421875 11.644531 2.339844 C 11.40625 2.339844 10.84375 1.378906 11.003906 1.140625 C 11.085938 0.980469 12.125 0.820312 12.285156 1.058594 C 12.445312 1.21875 12.125 2.179688 11.886719 2.339844 C 11.644531 2.421875 11.003906 2.019531 10.925781 1.78125 C 10.84375 1.460938 11.246094 0.820312 11.484375 0.738281 C 11.804688 0.738281 12.367188 1.058594 12.445312 1.300781 C 12.527344 1.539062 12.367188 1.941406 12.046875 2.257812 C 11.164062 3.058594 6.839844 3.78125 4.757812 3.78125 C 3.15625 3.699219 1.15625 3.300781 0.59375 2.820312 C 0.273438 2.5 0.195312 2.101562 0.273438 1.859375 C 0.355469 1.539062 0.753906 1.300781 1.316406 1.21875 C 2.355469 0.980469 5.878906 1.140625 6.601562 1.859375 C 7 2.257812 7.160156 3.21875 6.839844 3.460938 C 6.359375 3.941406 2.195312 2.5 1.316406 1.859375 C 0.996094 1.539062 0.753906 1.140625 0.835938 0.898438 C 0.914062 0.660156 1.714844 0.257812 1.714844 0.257812 " clip-rule="nonzero"/></clipPath><clipPath id="8b4bb684b4"><rect x="0" width="13" y="0" height="4"/></clipPath><clipPath id="a8bd804486"><path d="M 756.753906 426.691406 L 758.394531 426.691406 L 758.394531 428.429688 L 756.753906 428.429688 Z M 756.753906 426.691406 " clip-rule="nonzero"/></clipPath><clipPath id="aa8454d552"><path d="M 756.765625 427.539062 C 757.726562 426.578125 758.367188 427.378906 758.285156 427.621094 C 758.207031 427.859375 757.246094 428.179688 757.003906 428.019531 C 756.84375 427.941406 756.925781 426.820312 757.085938 426.738281 C 757.324219 426.578125 758.285156 427.140625 758.367188 427.460938 C 758.445312 427.699219 758.046875 428.339844 757.804688 428.421875 C 757.484375 428.5 756.765625 427.941406 756.765625 427.941406 " clip-rule="nonzero"/></clipPath><clipPath id="c5cf70b73a"><path d="M 0.753906 0.691406 L 2.394531 0.691406 L 2.394531 2.429688 L 0.753906 2.429688 Z M 0.753906 0.691406 " clip-rule="nonzero"/></clipPath><clipPath id="b9cf31d68d"><path d="M 0.765625 1.539062 C 1.726562 0.578125 2.367188 1.378906 2.285156 1.621094 C 2.207031 1.859375 1.246094 2.179688 1.003906 2.019531 C 0.84375 1.941406 0.925781 0.820312 1.085938 0.738281 C 1.324219 0.578125 2.285156 1.140625 2.367188 1.460938 C 2.445312 1.699219 2.046875 2.339844 1.804688 2.421875 C 1.484375 2.5 0.765625 1.941406 0.765625 1.941406 " clip-rule="nonzero"/></clipPath><clipPath id="6b41399461"><rect x="0" width="3" y="0" height="3"/></clipPath><clipPath id="b96d829408"><path d="M 752.625 426.234375 L 759.019531 426.234375 L 759.019531 428.921875 L 752.625 428.921875 Z M 752.625 426.234375 " clip-rule="nonzero"/></clipPath><clipPath id="958e9c005f"><path d="M 753.242188 426.898438 C 756.363281 427.21875 757.804688 426.097656 758.367188 426.257812 C 758.6875 426.417969 759.007812 426.980469 759.007812 427.21875 C 758.925781 427.460938 758.445312 427.859375 758.207031 427.859375 C 757.964844 427.859375 757.40625 426.980469 757.484375 426.820312 C 757.566406 426.578125 758.527344 426.339844 758.765625 426.5 C 758.925781 426.578125 759.085938 427.140625 758.925781 427.378906 C 758.605469 428.019531 756.523438 428.738281 755.402344 428.898438 C 754.441406 428.980469 752.921875 428.660156 752.679688 428.257812 C 752.519531 427.941406 753.242188 426.898438 753.242188 426.898438 " clip-rule="nonzero"/></clipPath><clipPath id="7b726cb264"><path d="M 0.625 0.234375 L 7.019531 0.234375 L 7.019531 2.921875 L 0.625 2.921875 Z M 0.625 0.234375 " clip-rule="nonzero"/></clipPath><clipPath id="936dd90c1d"><path d="M 1.242188 0.898438 C 4.363281 1.21875 5.804688 0.0976562 6.367188 0.257812 C 6.6875 0.417969 7.007812 0.980469 7.007812 1.21875 C 6.925781 1.460938 6.445312 1.859375 6.207031 1.859375 C 5.964844 1.859375 5.40625 0.980469 5.484375 0.820312 C 5.566406 0.578125 6.527344 0.339844 6.765625 0.5 C 6.925781 0.578125 7.085938 1.140625 6.925781 1.378906 C 6.605469 2.019531 4.523438 2.738281 3.402344 2.898438 C 2.441406 2.980469 0.921875 2.660156 0.679688 2.257812 C 0.519531 1.941406 1.242188 0.898438 1.242188 0.898438 " clip-rule="nonzero"/></clipPath><clipPath id="afb413aaf5"><rect x="0" width="8" y="0" height="3"/></clipPath><clipPath id="ce876598a8"><path d="M 756.078125 424.324219 L 758 424.324219 L 758 428.511719 L 756.078125 428.511719 Z M 756.078125 424.324219 " clip-rule="nonzero"/></clipPath><clipPath id="4c976810a8"><path d="M 757.964844 427.460938 C 756.523438 428.339844 756.203125 427.378906 756.125 426.820312 C 756.042969 426.097656 756.203125 424.578125 756.605469 424.417969 C 756.84375 424.335938 757.804688 425.136719 757.804688 425.378906 C 757.726562 425.539062 756.683594 425.859375 756.523438 425.699219 C 756.363281 425.539062 756.683594 424.335938 756.925781 424.335938 C 757.085938 424.257812 757.804688 425.378906 757.726562 425.539062 C 757.566406 425.699219 756.285156 425.539062 756.285156 425.296875 C 756.203125 425.136719 757.085938 424.257812 757.324219 424.335938 C 757.726562 424.496094 758.125 427.21875 757.964844 427.859375 C 757.804688 428.179688 757.484375 428.421875 757.246094 428.5 C 757.003906 428.5 756.445312 428.179688 756.363281 427.859375 C 756.285156 427.539062 756.605469 426.738281 756.84375 426.660156 C 757.164062 426.578125 757.964844 427.460938 757.964844 427.460938 " clip-rule="nonzero"/></clipPath><clipPath id="8375f1d48b"><path d="M 0.078125 0.324219 L 2 0.324219 L 2 4.511719 L 0.078125 4.511719 Z M 0.078125 0.324219 " clip-rule="nonzero"/></clipPath><clipPath id="1447ef1108"><path d="M 1.964844 3.460938 C 0.523438 4.339844 0.203125 3.378906 0.125 2.820312 C 0.0429688 2.097656 0.203125 0.578125 0.605469 0.417969 C 0.84375 0.335938 1.804688 1.136719 1.804688 1.378906 C 1.726562 1.539062 0.683594 1.859375 0.523438 1.699219 C 0.363281 1.539062 0.683594 0.335938 0.925781 0.335938 C 1.085938 0.257812 1.804688 1.378906 1.726562 1.539062 C 1.566406 1.699219 0.285156 1.539062 0.285156 1.296875 C 0.203125 1.136719 1.085938 0.257812 1.324219 0.335938 C 1.726562 0.496094 2.125 3.21875 1.964844 3.859375 C 1.804688 4.179688 1.484375 4.421875 1.246094 4.5 C 1.003906 4.5 0.445312 4.179688 0.363281 3.859375 C 0.285156 3.539062 0.605469 2.738281 0.84375 2.660156 C 1.164062 2.578125 1.964844 3.460938 1.964844 3.460938 " clip-rule="nonzero"/></clipPath><clipPath id="4de142c705"><rect x="0" width="2" y="0" height="5"/></clipPath><clipPath id="038f988ce4"><path d="M 755.375 425.1875 L 760.46875 425.1875 L 760.46875 428.289062 L 755.375 428.289062 Z M 755.375 425.1875 " clip-rule="nonzero"/></clipPath><clipPath id="11ff414a66"><path d="M 757.726562 428.101562 C 755.324219 427.058594 759.488281 424.976562 760.128906 425.21875 C 760.367188 425.296875 760.449219 425.859375 760.449219 425.859375 C 760.449219 425.859375 759.96875 425.21875 759.96875 425.21875 C 759.96875 425.21875 760.527344 425.617188 760.449219 425.777344 C 760.449219 426.179688 758.925781 426.898438 758.125 427.300781 C 757.40625 427.699219 756.203125 428.339844 755.722656 428.261719 C 755.5625 428.179688 755.324219 427.699219 755.402344 427.539062 C 755.5625 427.300781 757.566406 427.058594 757.804688 427.378906 C 757.964844 427.460938 757.726562 428.101562 757.726562 428.101562 " clip-rule="nonzero"/></clipPath><clipPath id="d20f8b8f4e"><path d="M 0.375 0.1875 L 5.46875 0.1875 L 5.46875 3.289062 L 0.375 3.289062 Z M 0.375 0.1875 " clip-rule="nonzero"/></clipPath><clipPath id="a7697f4d01"><path d="M 2.726562 3.101562 C 0.324219 2.058594 4.488281 -0.0234375 5.128906 0.21875 C 5.367188 0.296875 5.449219 0.859375 5.449219 0.859375 C 5.449219 0.859375 4.96875 0.21875 4.96875 0.21875 C 4.96875 0.21875 5.527344 0.617188 5.449219 0.777344 C 5.449219 1.179688 3.925781 1.898438 3.125 2.300781 C 2.40625 2.699219 1.203125 3.339844 0.722656 3.261719 C 0.5625 3.179688 0.324219 2.699219 0.402344 2.539062 C 0.5625 2.300781 2.566406 2.058594 2.804688 2.378906 C 2.964844 2.460938 2.726562 3.101562 2.726562 3.101562 " clip-rule="nonzero"/></clipPath><clipPath id="50aaca3452"><rect x="0" width="6" y="0" height="4"/></clipPath><clipPath id="9c7ea4af4d"><path d="M 752.570312 424.703125 L 761.054688 424.703125 L 761.054688 429.332031 L 752.570312 429.332031 Z M 752.570312 424.703125 " clip-rule="nonzero"/></clipPath><clipPath id="1b92b2e0cb"><path d="M 755.644531 428.582031 C 761.167969 424.898438 758.527344 428.019531 757.246094 428.660156 C 756.285156 429.140625 755.003906 429.460938 754.28125 429.058594 C 753.480469 428.660156 752.601562 426.257812 752.601562 426.257812 C 752.601562 426.179688 753.242188 427.941406 753.882812 428.261719 C 754.601562 428.582031 755.964844 428.339844 757.003906 427.859375 C 758.285156 427.378906 760.929688 424.65625 761.007812 424.738281 C 761.089844 424.816406 759.007812 427.21875 758.125 428.019531 C 757.40625 428.582031 756.363281 429.378906 755.964844 429.300781 C 755.804688 429.21875 755.644531 428.582031 755.644531 428.582031 " clip-rule="nonzero"/></clipPath><clipPath id="b88faeaa4e"><path d="M 0.570312 0.703125 L 9.054688 0.703125 L 9.054688 5.332031 L 0.570312 5.332031 Z M 0.570312 0.703125 " clip-rule="nonzero"/></clipPath><clipPath id="6f8ecf1dc2"><path d="M 3.644531 4.582031 C 9.167969 0.898438 6.527344 4.019531 5.246094 4.660156 C 4.285156 5.140625 3.003906 5.460938 2.28125 5.058594 C 1.480469 4.660156 0.601562 2.257812 0.601562 2.257812 C 0.601562 2.179688 1.242188 3.941406 1.882812 4.261719 C 2.601562 4.582031 3.964844 4.339844 5.003906 3.859375 C 6.285156 3.378906 8.929688 0.65625 9.007812 0.738281 C 9.089844 0.816406 7.007812 3.21875 6.125 4.019531 C 5.40625 4.582031 4.363281 5.378906 3.964844 5.300781 C 3.804688 5.21875 3.644531 4.582031 3.644531 4.582031 " clip-rule="nonzero"/></clipPath><clipPath id="e5344bd8bc"><rect x="0" width="10" y="0" height="6"/></clipPath><clipPath id="2ab6a42d60"><path d="M 754.234375 425.449219 L 761.773438 425.449219 L 761.773438 429.546875 L 754.234375 429.546875 Z M 754.234375 425.449219 " clip-rule="nonzero"/></clipPath><clipPath id="f2bea0a736"><path d="M 757.804688 428.339844 C 754.363281 428.902344 754.203125 428.582031 754.28125 428.339844 C 754.601562 427.78125 758.605469 426.578125 759.40625 426.820312 C 759.726562 426.898438 760.046875 427.21875 759.96875 427.460938 C 759.96875 427.941406 758.765625 428.742188 758.046875 429.0625 C 757.40625 429.382812 756.363281 429.703125 755.964844 429.460938 C 755.722656 429.382812 755.644531 429.0625 755.722656 428.820312 C 755.964844 428.019531 760.527344 425.296875 761.25 425.539062 C 761.570312 425.617188 761.570312 426.257812 761.648438 426.257812 C 761.648438 426.257812 761.488281 425.457031 761.488281 425.457031 C 761.488281 425.457031 761.890625 425.859375 761.730469 426.179688 C 761.488281 426.898438 756.605469 429.78125 755.964844 429.460938 C 755.722656 429.382812 755.644531 428.980469 755.804688 428.742188 C 756.042969 428.179688 759.246094 427.21875 759.328125 427.300781 C 759.328125 427.378906 757.324219 428.660156 756.445312 428.902344 C 755.804688 429.140625 754.84375 429.222656 754.523438 429.0625 C 754.363281 428.902344 754.203125 428.582031 754.28125 428.339844 C 754.523438 427.941406 757.40625 427.300781 757.804688 427.539062 C 757.964844 427.699219 757.804688 428.339844 757.804688 428.339844 " clip-rule="nonzero"/></clipPath><clipPath id="aca687afca"><path d="M 0.234375 0.449219 L 7.773438 0.449219 L 7.773438 4.546875 L 0.234375 4.546875 Z M 0.234375 0.449219 " clip-rule="nonzero"/></clipPath><clipPath id="e915b30530"><path d="M 3.804688 3.339844 C 0.363281 3.902344 0.203125 3.582031 0.28125 3.339844 C 0.601562 2.78125 4.605469 1.578125 5.40625 1.820312 C 5.726562 1.898438 6.046875 2.21875 5.96875 2.460938 C 5.96875 2.941406 4.765625 3.742188 4.046875 4.0625 C 3.40625 4.382812 2.363281 4.703125 1.964844 4.460938 C 1.722656 4.382812 1.644531 4.0625 1.722656 3.820312 C 1.964844 3.019531 6.527344 0.296875 7.25 0.539062 C 7.570312 0.617188 7.570312 1.257812 7.648438 1.257812 C 7.648438 1.257812 7.488281 0.457031 7.488281 0.457031 C 7.488281 0.457031 7.890625 0.859375 7.730469 1.179688 C 7.488281 1.898438 2.605469 4.78125 1.964844 4.460938 C 1.722656 4.382812 1.644531 3.980469 1.804688 3.742188 C 2.042969 3.179688 5.246094 2.21875 5.328125 2.300781 C 5.328125 2.378906 3.324219 3.660156 2.445312 3.902344 C 1.804688 4.140625 0.84375 4.222656 0.523438 4.0625 C 0.363281 3.902344 0.203125 3.582031 0.28125 3.339844 C 0.523438 2.941406 3.40625 2.300781 3.804688 2.539062 C 3.964844 2.699219 3.804688 3.339844 3.804688 3.339844 " clip-rule="nonzero"/></clipPath><clipPath id="8b5a6b8c12"><rect x="0" width="8" y="0" height="5"/></clipPath><clipPath id="0eb1d5f329"><path d="M 939.34375 278.839844 L 944.167969 278.839844 L 944.167969 283.664062 L 939.34375 283.664062 Z M 939.34375 278.839844 " clip-rule="nonzero"/></clipPath><clipPath id="25c461fec5"><path d="M 943.902344 282.363281 C 941.417969 283.804688 940.378906 283.402344 939.976562 282.921875 C 939.496094 282.441406 939.257812 281.320312 939.417969 280.679688 C 939.578125 280.039062 940.296875 279.238281 940.9375 279.078125 C 941.578125 278.839844 942.621094 279 943.179688 279.320312 C 943.660156 279.71875 944.140625 280.679688 944.140625 281.402344 C 944.140625 282.042969 943.582031 283.003906 943.019531 283.324219 C 942.460938 283.722656 941.417969 283.722656 940.777344 283.484375 C 940.296875 283.324219 939.898438 282.921875 939.65625 282.441406 C 939.417969 281.882812 939.335938 280.839844 939.578125 280.199219 C 939.816406 279.71875 940.378906 279.238281 940.859375 279.078125 C 941.339844 278.839844 942.058594 278.757812 942.539062 279 C 943.101562 279.238281 943.902344 280.039062 944.0625 280.601562 C 944.300781 281.160156 943.902344 282.28125 943.902344 282.28125 " clip-rule="nonzero"/></clipPath><clipPath id="55ea2cc505"><path d="M 0.34375 0.839844 L 5.167969 0.839844 L 5.167969 5.664062 L 0.34375 5.664062 Z M 0.34375 0.839844 " clip-rule="nonzero"/></clipPath><clipPath id="051dea5150"><path d="M 4.902344 4.363281 C 2.417969 5.804688 1.378906 5.402344 0.976562 4.921875 C 0.496094 4.441406 0.257812 3.320312 0.417969 2.679688 C 0.578125 2.039062 1.296875 1.238281 1.9375 1.078125 C 2.578125 0.839844 3.621094 1 4.179688 1.320312 C 4.660156 1.71875 5.140625 2.679688 5.140625 3.402344 C 5.140625 4.042969 4.582031 5.003906 4.019531 5.324219 C 3.460938 5.722656 2.417969 5.722656 1.777344 5.484375 C 1.296875 5.324219 0.898438 4.921875 0.65625 4.441406 C 0.417969 3.882812 0.335938 2.839844 0.578125 2.199219 C 0.816406 1.71875 1.378906 1.238281 1.859375 1.078125 C 2.339844 0.839844 3.058594 0.757812 3.539062 1 C 4.101562 1.238281 4.902344 2.039062 5.0625 2.601562 C 5.300781 3.160156 4.902344 4.28125 4.902344 4.28125 " clip-rule="nonzero"/></clipPath><clipPath id="b25d4fd27f"><rect x="0" width="6" y="0" height="6"/></clipPath><clipPath id="e4ab7c9b1e"><path d="M 851 433 L 1289 433 L 1289 664 L 851 664 Z M 851 433 " clip-rule="nonzero"/></clipPath><clipPath id="7831997bfd"><path d="M 830.429688 490.25 L 1265.132812 396.964844 L 1310.277344 607.332031 L 875.574219 700.617188 Z M 830.429688 490.25 " clip-rule="nonzero"/></clipPath><clipPath id="1c95fca967"><path d="M 1047.683594 443.628906 C 927.695312 469.378906 840.535156 537.34375 853 595.433594 C 865.464844 653.527344 972.839844 679.746094 1092.828125 653.996094 C 1212.816406 628.246094 1299.976562 560.28125 1287.511719 502.191406 C 1275.046875 444.097656 1167.671875 417.878906 1047.683594 443.628906 Z M 1047.683594 443.628906 " clip-rule="nonzero"/></clipPath><clipPath id="bae53a519e"><path d="M 0 0 L 438 0 L 438 231 L 0 231 Z M 0 0 " clip-rule="nonzero"/></clipPath><clipPath id="e27b493cd6"><path d="M -20.570312 57.25 L 414.132812 -36.035156 L 459.277344 174.332031 L 24.574219 267.617188 Z M -20.570312 57.25 " clip-rule="nonzero"/></clipPath><clipPath id="94d141fbd9"><path d="M 196.683594 10.628906 C 76.695312 36.378906 -10.464844 104.34375 2 162.433594 C 14.464844 220.527344 121.839844 246.746094 241.828125 220.996094 C 361.816406 195.246094 448.976562 127.28125 436.511719 69.191406 C 424.046875 11.097656 316.671875 -15.121094 196.683594 10.628906 Z M 196.683594 10.628906 " clip-rule="nonzero"/></clipPath><clipPath id="d53a4f427b"><rect x="0" width="438" y="0" height="231"/></clipPath><clipPath id="8f524b6f0e"><path d="M 851 433 L 1289 433 L 1289 664 L 851 664 Z M 851 433 " clip-rule="nonzero"/></clipPath><clipPath id="389afc3a37"><path d="M 830.429688 490.25 L 1265.277344 396.933594 L 1310.441406 607.390625 L 875.59375 700.710938 Z M 830.429688 490.25 " clip-rule="nonzero"/></clipPath><clipPath id="dc9a01f0c9"><path d="M 830.429688 490.253906 L 1267.59375 396.4375 L 1312.738281 606.800781 L 875.574219 700.617188 Z M 830.429688 490.253906 " clip-rule="nonzero"/></clipPath><clipPath id="d7f29a7169"><path d="M 1047.679688 443.628906 C 927.695312 469.378906 840.535156 537.34375 853 595.433594 C 865.464844 653.523438 972.839844 679.742188 1092.824219 653.996094 C 1212.8125 628.246094 1299.972656 560.28125 1287.507812 502.191406 C 1275.039062 444.101562 1167.667969 417.882812 1047.679688 443.628906 Z M 1047.679688 443.628906 " clip-rule="nonzero"/></clipPath><clipPath id="69c08f49ce"><rect x="0" width="217" y="0" height="229"/></clipPath></defs><path stroke-linecap="butt" transform="matrix(0, 0.75, -0.75, 0, 143.574395, 160.250767)" fill="none" stroke-linejoin="miter" d="M -0.00102266 21.500237 L 1708.275166 21.500237 " stroke="#ed3a1a" stroke-width="43" stroke-opacity="1" stroke-miterlimit="4"/><path stroke-linecap="butt" transform="matrix(0.698895, 0.272113, -0.272113, 0.698895, 143.193419, 160.095041)" fill="none" stroke-linejoin="miter" d="M 0.000858155 21.499394 L 879.526232 21.501618 " stroke="#ed3a1a" stroke-width="43" stroke-opacity="1" stroke-miterlimit="4"/><path stroke-linecap="butt" transform="matrix(0, 0.75, -0.75, 0, 1388.669434, 160.250767)" fill="none" stroke-linejoin="miter" d="M -0.00102266 21.501955 L 1708.275166 21.501955 " stroke="#ed3a1a" stroke-width="43" stroke-opacity="1" stroke-miterlimit="4"/><path stroke-linecap="butt" transform="matrix(-0.698105, 0.274135, -0.274135, -0.698105, 1367.400852, 190.130443)" fill="none" stroke-linejoin="miter" d="M -0.00110679 21.499706 L 873.043709 21.49927 " stroke="#ed3a1a" stroke-width="43" stroke-opacity="1" stroke-miterlimit="4"/><path stroke-linecap="butt" transform="matrix(0.749988, -0.00421588, 0.00421588, 0.749988, 746.229977, 428.587911)" fill="none" stroke-linejoin="miter" d="M 0.164641 0.477468 C 5.077129 2.161359 10.27511 2.164536 15.753435 0.476554 " stroke="#ed3a1a" stroke-width="1" stroke-opacity="1" stroke-miterlimit="4"/><g clip-path="url(#7b768d3209)"><g clip-path="url(#b28edd28e5)"><g transform="matrix(1, 0, 0, 1, 745, 424)"><g clip-path="url(#159e6731b7)"><g clip-path="url(#f18da63785)"><g clip-path="url(#72306b9ed1)"><rect x="-1075" width="2160" fill="#ed3a1a" height="2159.999904" y="-753.999985" fill-opacity="1"/></g></g></g></g></g></g><g clip-path="url(#9018c75991)"><g clip-path="url(#0d295e4345)"><g transform="matrix(1, 0, 0, 1, 743, 411)"><g clip-path="url(#7d30beff99)"><g clip-path="url(#fd246053dc)"><g clip-path="url(#2e4b99b362)"><rect x="-1073" width="2160" fill="#ed3a1a" height="2159.999904" y="-740.999985" fill-opacity="1"/></g></g></g></g></g></g><g clip-path="url(#d20fe554d8)"><g clip-path="url(#6e7a0fb1b1)"><g transform="matrix(1, 0, 0, 1, 746, 426)"><g clip-path="url(#8b4bb684b4)"><g clip-path="url(#8b2a1089f3)"><g clip-path="url(#971bb9c438)"><rect x="-1076" width="2160" fill="#ed3a1a" height="2159.999904" y="-755.999985" fill-opacity="1"/></g></g></g></g></g></g><g clip-path="url(#a8bd804486)"><g clip-path="url(#aa8454d552)"><g transform="matrix(1, 0, 0, 1, 756, 426)"><g clip-path="url(#6b41399461)"><g clip-path="url(#c5cf70b73a)"><g clip-path="url(#b9cf31d68d)"><rect x="-1086" width="2160" fill="#ed3a1a" height="2159.999904" y="-755.999985" fill-opacity="1"/></g></g></g></g></g></g><g clip-path="url(#b96d829408)"><g clip-path="url(#958e9c005f)"><g transform="matrix(1, 0, 0, 1, 752, 426)"><g clip-path="url(#afb413aaf5)"><g clip-path="url(#7b726cb264)"><g clip-path="url(#936dd90c1d)"><rect x="-1082" width="2160" fill="#ed3a1a" height="2159.999904" y="-755.999985" fill-opacity="1"/></g></g></g></g></g></g><g clip-path="url(#ce876598a8)"><g clip-path="url(#4c976810a8)"><g transform="matrix(1, 0, 0, 1, 756, 424)"><g clip-path="url(#4de142c705)"><g clip-path="url(#8375f1d48b)"><g clip-path="url(#1447ef1108)"><rect x="-1086" width="2160" fill="#ed3a1a" height="2159.999904" y="-753.999985" fill-opacity="1"/></g></g></g></g></g></g><g clip-path="url(#038f988ce4)"><g clip-path="url(#11ff414a66)"><g transform="matrix(1, 0, 0, 1, 755, 425)"><g clip-path="url(#50aaca3452)"><g clip-path="url(#d20f8b8f4e)"><g clip-path="url(#a7697f4d01)"><rect x="-1085" width="2160" fill="#ed3a1a" height="2159.999904" y="-754.999985" fill-opacity="1"/></g></g></g></g></g></g><g clip-path="url(#9c7ea4af4d)"><g clip-path="url(#1b92b2e0cb)"><g transform="matrix(1, 0, 0, 1, 752, 424)"><g clip-path="url(#e5344bd8bc)"><g clip-path="url(#b88faeaa4e)"><g clip-path="url(#6f8ecf1dc2)"><rect x="-1082" width="2160" fill="#ed3a1a" height="2159.999904" y="-753.999985" fill-opacity="1"/></g></g></g></g></g></g><g clip-path="url(#2ab6a42d60)"><g clip-path="url(#f2bea0a736)"><g transform="matrix(1, 0, 0, 1, 754, 425)"><g clip-path="url(#8b5a6b8c12)"><g clip-path="url(#aca687afca)"><g clip-path="url(#e915b30530)"><rect x="-1084" width="2160" fill="#ed3a1a" height="2159.999904" y="-754.999985" fill-opacity="1"/></g></g></g></g></g></g><path stroke-linecap="butt" transform="matrix(0.288431, 0.692321, -0.692321, 0.288431, 590.412462, 0.0114181)" fill="none" stroke-linejoin="miter" d="M 0.00148074 6.498185 L 573.621314 6.49861 " stroke="#ed3a1a" stroke-width="13" stroke-opacity="1" stroke-miterlimit="4"/><path stroke-linecap="butt" transform="matrix(0.0123765, 0.749898, -0.749898, 0.0123765, 589.482103, 0.204925)" fill="none" stroke-linejoin="miter" d="M -0.000253135 6.497851 L 375.181022 6.501601 " stroke="#ed3a1a" stroke-width="13" stroke-opacity="1" stroke-miterlimit="4"/><path stroke-linecap="butt" transform="matrix(0.375, 0.649519, -0.649519, 0.375, 443.845387, 21.719324)" fill="none" stroke-linejoin="miter" d="M 0.000327834 6.497901 L 555.043881 6.498963 " stroke="#ed3a1a" stroke-width="13" stroke-opacity="1" stroke-miterlimit="4"/><path stroke-linecap="butt" transform="matrix(0.00375369, 0.749991, -0.749991, 0.00375369, 445.516987, 27.530831)" fill="none" stroke-linejoin="miter" d="M -0.000733424 6.501894 L 326.227348 6.499223 " stroke="#ed3a1a" stroke-width="13" stroke-opacity="1" stroke-miterlimit="4"/><path stroke-linecap="butt" transform="matrix(0.483185, 0.573613, -0.573613, 0.483185, 261.571974, 51.925809)" fill="none" stroke-linejoin="miter" d="M 0.000113417 6.499642 L 465.72353 6.498746 " stroke="#ed3a1a" stroke-width="13" stroke-opacity="1" stroke-miterlimit="4"/><path stroke-linecap="butt" transform="matrix(-0.00616941, 0.749975, -0.749975, -0.00616941, 264.113096, 57.920687)" fill="none" stroke-linejoin="miter" d="M -0.00223959 6.499993 L 226.17731 6.498841 " stroke="#ed3a1a" stroke-width="13" stroke-opacity="1" stroke-miterlimit="4"/><path stroke-linecap="butt" transform="matrix(-0.288962, 0.692099, -0.692099, -0.288962, 924.795842, 3.7602)" fill="none" stroke-linejoin="miter" d="M 0.00122903 6.499954 L 571.118413 6.50031 " stroke="#ed3a1a" stroke-width="13" stroke-opacity="1" stroke-miterlimit="4"/><path stroke-linecap="butt" transform="matrix(-0.000890323, 0.749999, -0.749999, -0.000890323, 925.47833, 5.54514)" fill="none" stroke-linejoin="miter" d="M -0.000384613 6.502362 L 338.390496 6.5017 " stroke="#ed3a1a" stroke-width="13" stroke-opacity="1" stroke-miterlimit="4"/><path stroke-linecap="butt" transform="matrix(-0.415071, 0.624673, -0.624673, -0.415071, 1069.135261, 42.944621)" fill="none" stroke-linejoin="miter" d="M -0.000137583 6.501161 L 571.122184 6.498855 " stroke="#ed3a1a" stroke-width="13" stroke-opacity="1" stroke-miterlimit="4"/><path stroke-linecap="butt" transform="matrix(-0.00117583, 0.749999, -0.749999, -0.00117583, 1069.842949, 37.78353)" fill="none" stroke-linejoin="miter" d="M 0.00194016 6.498938 L 306.570045 6.497476 " stroke="#ed3a1a" stroke-width="13" stroke-opacity="1" stroke-miterlimit="4"/><path stroke-linecap="butt" transform="matrix(-0.00616941, 0.749975, -0.749975, -0.00616941, 1231.234031, 59.128117)" fill="none" stroke-linejoin="miter" d="M 0.00243478 6.499743 L 226.176776 6.498634 " stroke="#ed3a1a" stroke-width="13" stroke-opacity="1" stroke-miterlimit="4"/><path stroke-linecap="butt" transform="matrix(-0.459669, 0.592625, -0.592625, -0.459669, 1230.304031, 63.812795)" fill="none" stroke-linejoin="miter" d="M -0.00171463 6.499377 L 396.691106 6.500074 " stroke="#ed3a1a" stroke-width="13" stroke-opacity="1" stroke-miterlimit="4"/><g clip-path="url(#0eb1d5f329)"><g clip-path="url(#25c461fec5)"><g transform="matrix(1, 0, 0, 1, 939, 278)"><g clip-path="url(#b25d4fd27f)"><g clip-path="url(#55ea2cc505)"><g clip-path="url(#051dea5150)"><rect x="-1269" width="2160" fill="#ffffff" height="2159.999904" y="-607.999985" fill-opacity="1"/></g></g></g></g></g></g><path stroke-linecap="butt" transform="matrix(0.746711, 0.0701562, -0.0701562, 0.746711, 126.922273, 1409.201355)" fill="none" stroke-linejoin="miter" d="M -0.000021528 21.497665 L 839.211294 21.501734 " stroke="#ed3a1a" stroke-width="43" stroke-opacity="1" stroke-miterlimit="4"/><path stroke-linecap="butt" transform="matrix(0.746602, -0.0713146, 0.0713146, 0.746602, 747.782777, 1468.09615)" fill="none" stroke-linejoin="miter" d="M 0.000439448 21.500512 L 825.815382 21.49805 " stroke="#ed3a1a" stroke-width="43" stroke-opacity="1" stroke-miterlimit="4"/><g clip-path="url(#e4ab7c9b1e)"><g clip-path="url(#7831997bfd)"><g clip-path="url(#1c95fca967)"><g transform="matrix(1, 0, 0, 1, 851, 433)"><g clip-path="url(#d53a4f427b)"><g clip-path="url(#bae53a519e)"><g clip-path="url(#e27b493cd6)"><g clip-path="url(#94d141fbd9)"><path fill="#ffffff" d="M -20.570312 57.25 L 414.132812 -36.035156 L 459.277344 174.332031 L 24.574219 267.617188 Z M -20.570312 57.25 " fill-opacity="1" fill-rule="nonzero"/></g></g></g></g></g></g></g></g><g clip-path="url(#8f524b6f0e)"><g clip-path="url(#389afc3a37)"><g clip-path="url(#dc9a01f0c9)"><g clip-path="url(#d7f29a7169)"><path stroke-linecap="butt" transform="matrix(0.733305, -0.157366, 0.157366, 0.733305, 830.428498, 490.252066)" fill="none" stroke-linejoin="miter" d="M 296.263592 -0.00200347 C 132.641709 0.000107995 0.00115712 64.218683 -0.000286906 143.434882 C -0.00173094 222.651081 132.643063 286.870592 296.263853 286.873573 C 459.890829 286.872555 592.53138 222.65398 592.532824 143.437781 C 592.529176 64.220489 459.889475 0.00207027 296.263592 -0.00200347 Z M 296.263592 -0.00200347 " stroke="#ed3a1a" stroke-width="26" stroke-opacity="1" stroke-miterlimit="4"/></g></g></g></g><g transform="matrix(1, 0, 0, 1, 962, 434)"><g clip-path="url(#69c08f49ce)"><g fill="#ed3a1a" fill-opacity="1"><g transform="translate(33.006001, 107.756132)"><g><path d="M 23.796875 -4.171875 C 20.078125 -3.410156 16.578125 -3.582031 13.296875 -4.6875 C 10.015625 -5.800781 7.128906 -8.046875 4.640625 -11.421875 C 2.160156 -14.804688 0.328125 -19.375 -0.859375 -25.125 C -2.066406 -30.988281 -2.164062 -36.046875 -1.15625 -40.296875 C -0.144531 -44.546875 1.726562 -47.90625 4.46875 -50.375 C 7.21875 -52.851562 10.613281 -54.507812 14.65625 -55.34375 C 18.007812 -56.039062 21 -56.15625 23.625 -55.6875 C 26.257812 -55.21875 28.445312 -54.175781 30.1875 -52.5625 L 26.640625 -45.40625 L 25.8125 -45.234375 C 23.257812 -47.273438 20.109375 -47.90625 16.359375 -47.125 C 9.316406 -45.675781 6.78125 -39.78125 8.75 -29.4375 L 9.5 -29.34375 C 10.21875 -31.695312 11.40625 -33.628906 13.0625 -35.140625 C 14.71875 -36.648438 16.976562 -37.695312 19.84375 -38.28125 C 22.90625 -38.914062 25.6875 -38.816406 28.1875 -37.984375 C 30.6875 -37.148438 32.785156 -35.648438 34.484375 -33.484375 C 36.179688 -31.316406 37.375 -28.566406 38.0625 -25.234375 C 38.800781 -21.640625 38.722656 -18.378906 37.828125 -15.453125 C 36.941406 -12.535156 35.296875 -10.113281 32.890625 -8.1875 C 30.484375 -6.269531 27.453125 -4.929688 23.796875 -4.171875 Z M 21.875 -12.5 C 24.425781 -13.019531 26.269531 -14.179688 27.40625 -15.984375 C 28.539062 -17.785156 28.828125 -20.039062 28.265625 -22.75 C 27.703125 -25.457031 26.546875 -27.410156 24.796875 -28.609375 C 23.046875 -29.804688 20.894531 -30.144531 18.34375 -29.625 C 16.675781 -29.28125 15.285156 -28.625 14.171875 -27.65625 C 13.066406 -26.695312 12.304688 -25.503906 11.890625 -24.078125 C 11.484375 -22.660156 11.460938 -21.082031 11.828125 -19.34375 C 12.367188 -16.695312 13.535156 -14.757812 15.328125 -13.53125 C 17.128906 -12.3125 19.3125 -11.96875 21.875 -12.5 Z M 21.875 -12.5 "/></g></g><g transform="translate(77.958462, 98.478755)"><g><path d="M 19.578125 -24.796875 L -1.171875 -20.515625 L -2.875 -28.765625 L 17.875 -33.046875 Z M 19.578125 -24.796875 "/></g></g></g><g fill="#ed3a1a" fill-opacity="1"><g transform="translate(99.4192, 94.049647)"><g><path d="M 2.59375 -0.53125 L 0.921875 -8.625 L 12.875 -11.09375 L 6.515625 -41.890625 L 5.703125 -41.9375 C 4.179688 -40.769531 2.648438 -39.78125 1.109375 -38.96875 C -0.421875 -38.164062 -2.207031 -37.410156 -4.25 -36.703125 L -5.984375 -45.0625 C -0.734375 -47.351562 3.347656 -49.960938 6.265625 -52.890625 L 14.015625 -54.484375 L 22.5625 -13.09375 L 33.21875 -15.296875 L 34.890625 -7.203125 Z M 2.59375 -0.53125 "/></g></g><g transform="translate(135.943074, 86.511779)"><g><path d="M 1.59375 -4.4375 C 1.03125 -7.15625 0.851562 -9.507812 1.0625 -11.5 C 1.269531 -13.5 1.894531 -15.410156 2.9375 -17.234375 C 3.976562 -19.054688 5.550781 -21.117188 7.65625 -23.421875 L 13.265625 -29.546875 C 14.804688 -31.210938 15.976562 -32.625 16.78125 -33.78125 C 17.59375 -34.9375 18.144531 -36.082031 18.4375 -37.21875 C 18.738281 -38.363281 18.753906 -39.601562 18.484375 -40.9375 C 18.066406 -42.945312 17.132812 -44.367188 15.6875 -45.203125 C 14.25 -46.046875 12.3125 -46.21875 9.875 -45.71875 C 7.53125 -45.226562 5.554688 -44.238281 3.953125 -42.75 C 2.359375 -41.257812 1.160156 -39.421875 0.359375 -37.234375 L -0.265625 -36.921875 L -6.859375 -41.84375 C -5.648438 -44.820312 -3.789062 -47.394531 -1.28125 -49.5625 C 1.21875 -51.738281 4.488281 -53.242188 8.53125 -54.078125 C 12.226562 -54.847656 15.445312 -54.878906 18.1875 -54.171875 C 20.9375 -53.472656 23.132812 -52.195312 24.78125 -50.34375 C 26.425781 -48.488281 27.53125 -46.191406 28.09375 -43.453125 C 28.570312 -41.109375 28.519531 -38.863281 27.9375 -36.71875 C 27.351562 -34.582031 26.363281 -32.507812 24.96875 -30.5 C 23.570312 -28.5 21.71875 -26.265625 19.40625 -23.796875 L 14.375 -18.5 C 12.882812 -16.863281 11.890625 -15.484375 11.390625 -14.359375 C 10.898438 -13.234375 10.785156 -12.050781 11.046875 -10.8125 L 33.390625 -15.421875 L 35.078125 -7.234375 L 2.40625 -0.5 Z M 1.59375 -4.4375 "/></g></g></g><g fill="#ed3a1a" fill-opacity="1"><g transform="translate(36.005297, 208.131388)"><g><path d="M 15.390625 -3.171875 L 6.421875 -1.328125 L -3.796875 -50.8125 L 9 -53.453125 L 29.046875 -19.640625 L 29.75 -19.796875 L 34.6875 -58.75 L 47.1875 -61.328125 L 57.40625 -11.84375 L 48.125 -9.9375 L 41.375 -42.640625 L 40.5 -42.609375 L 35.84375 -7.390625 L 27.6875 -5.71875 L 9.46875 -36.203125 L 8.640625 -35.875 Z M 15.390625 -3.171875 "/></g></g><g transform="translate(99.879764, 194.948852)"><g><path d="M 14.6875 -2.296875 C 12.300781 -1.804688 10.140625 -1.816406 8.203125 -2.328125 C 6.265625 -2.835938 4.644531 -3.847656 3.34375 -5.359375 C 2.039062 -6.878906 1.144531 -8.835938 0.65625 -11.234375 C 0.195312 -13.429688 0.285156 -15.375 0.921875 -17.0625 C 1.554688 -18.757812 2.765625 -20.296875 4.546875 -21.671875 C 6.335938 -23.046875 8.785156 -24.316406 11.890625 -25.484375 C 14.046875 -26.316406 15.660156 -27.066406 16.734375 -27.734375 C 17.816406 -28.410156 18.5 -29.0625 18.78125 -29.6875 C 19.070312 -30.3125 19.132812 -31.039062 18.96875 -31.875 C 18.71875 -33.0625 18.109375 -33.882812 17.140625 -34.34375 C 16.179688 -34.8125 14.734375 -34.84375 12.796875 -34.4375 C 10.710938 -34.007812 8.832031 -33.140625 7.15625 -31.828125 C 5.476562 -30.523438 4.109375 -28.972656 3.046875 -27.171875 L 2.375 -27.03125 L -2.78125 -32.140625 C -1.320312 -34.617188 0.648438 -36.726562 3.140625 -38.46875 C 5.628906 -40.207031 8.488281 -41.410156 11.71875 -42.078125 C 16.664062 -43.097656 20.457031 -42.785156 23.09375 -41.140625 C 25.738281 -39.503906 27.457031 -36.757812 28.25 -32.90625 L 31.59375 -16.6875 C 31.9375 -15.007812 32.84375 -14.320312 34.3125 -14.625 C 34.882812 -14.738281 35.414062 -14.957031 35.90625 -15.28125 L 36.421875 -15.234375 L 38.4375 -8.859375 C 37.988281 -8.410156 37.328125 -7.976562 36.453125 -7.5625 C 35.578125 -7.15625 34.582031 -6.835938 33.46875 -6.609375 C 31.226562 -6.148438 29.394531 -6.21875 27.96875 -6.8125 C 26.550781 -7.414062 25.378906 -8.582031 24.453125 -10.3125 L 23.71875 -10.21875 C 22.6875 -5.96875 19.675781 -3.328125 14.6875 -2.296875 Z M 16.234375 -9.921875 C 18.398438 -10.359375 19.976562 -11.441406 20.96875 -13.171875 C 21.96875 -14.898438 22.203125 -17.054688 21.671875 -19.640625 L 20.890625 -23.4375 L 20.21875 -23.4375 C 19.75 -22.863281 19.085938 -22.332031 18.234375 -21.84375 C 17.378906 -21.351562 16.128906 -20.785156 14.484375 -20.140625 C 12.515625 -19.378906 11.171875 -18.492188 10.453125 -17.484375 C 9.734375 -16.472656 9.53125 -15.210938 9.84375 -13.703125 C 10.175781 -12.097656 10.898438 -10.976562 12.015625 -10.34375 C 13.140625 -9.707031 14.546875 -9.566406 16.234375 -9.921875 Z M 16.234375 -9.921875 "/></g></g></g><g fill="#ed3a1a" fill-opacity="1"><g transform="translate(138.806972, 186.914979)"><g><path d="M 23.90625 -14.21875 L 27.796875 -7.78125 C 26.953125 -6.726562 25.804688 -5.804688 24.359375 -5.015625 C 22.921875 -4.234375 21.234375 -3.644531 19.296875 -3.25 C 15.253906 -2.414062 11.957031 -2.878906 9.40625 -4.640625 C 6.863281 -6.410156 5.160156 -9.394531 4.296875 -13.59375 L 0.640625 -31.328125 L -5.0625 -30.15625 L -6.609375 -37.609375 L -0.90625 -38.78125 L -2.40625 -46.0625 L 6.640625 -49.515625 L 8.453125 -40.71875 L 19.0625 -42.90625 L 20.609375 -35.453125 L 10 -33.265625 L 13.515625 -16.21875 C 13.898438 -14.351562 14.5625 -13.078125 15.5 -12.390625 C 16.445312 -11.703125 17.648438 -11.507812 19.109375 -11.8125 C 20.785156 -12.15625 22.148438 -12.910156 23.203125 -14.078125 Z M 23.90625 -14.21875 "/></g></g><g transform="translate(167.816203, 180.927998)"><g><path d="M 5.390625 -1.109375 L -5.40625 -53.4375 L 3.953125 -55.375 L 8.046875 -35.5 L 8.796875 -35.5 C 9.671875 -37.601562 10.90625 -39.332031 12.5 -40.6875 C 14.09375 -42.050781 16.164062 -43 18.71875 -43.53125 C 26.957031 -45.226562 32.039062 -41.40625 33.96875 -32.0625 L 38.921875 -8.03125 L 29.546875 -6.09375 L 24.828125 -28.9375 C 24.304688 -31.488281 23.414062 -33.234375 22.15625 -34.171875 C 20.90625 -35.117188 19.210938 -35.375 17.078125 -34.9375 C 14.453125 -34.394531 12.550781 -33.085938 11.375 -31.015625 C 10.195312 -28.953125 9.992188 -26.070312 10.765625 -22.375 L 14.75 -3.046875 Z M 5.390625 -1.109375 "/></g></g></g></g></g></svg>