<svg xmlns="http://www.w3.org/2000/svg" xmlns:xlink="http://www.w3.org/1999/xlink" width="2000" zoomAndPan="magnify" viewBox="0 0 1500 1499.999933" height="2000" preserveAspectRatio="xMidYMid meet" version="1.0"><defs><clipPath id="215ffb129a"><path d="M 7.554688 194.074219 L 1492.445312 194.074219 L 1492.445312 970.859375 L 7.554688 970.859375 Z M 7.554688 194.074219 " clip-rule="nonzero"/></clipPath><clipPath id="2ed6ce47ea"><path d="M 0.554688 0.0742188 L 1485 0.0742188 L 1485 776.859375 L 0.554688 776.859375 Z M 0.554688 0.0742188 " clip-rule="nonzero"/></clipPath><clipPath id="6827c23107"><rect x="0" width="1486" y="0" height="777"/></clipPath><clipPath id="4dc1b865eb"><path d="M 7.558594 194.074219 L 1492.433594 194.074219 L 1492.433594 970.851562 L 7.558594 970.851562 Z M 7.558594 194.074219 " clip-rule="nonzero"/></clipPath><clipPath id="70eb4779b3"><path d="M 959.863281 1077.085938 L 1349.863281 1077.085938 L 1349.863281 1500 L 959.863281 1500 Z M 959.863281 1077.085938 " clip-rule="nonzero"/></clipPath><clipPath id="f17a14062a"><path d="M 150 1152 L 471 1152 L 471 1499.980469 L 150 1499.980469 Z M 150 1152 " clip-rule="nonzero"/></clipPath><clipPath id="b76ee99003"><path d="M 383.101562 441 L 1116.601562 441 L 1116.601562 520 L 383.101562 520 Z M 383.101562 441 " clip-rule="nonzero"/></clipPath><clipPath id="177cf45f79"><path d="M 383.101562 538 L 836.851562 538 L 836.851562 620 L 383.101562 620 Z M 383.101562 538 " clip-rule="nonzero"/></clipPath><clipPath id="b458ad6167"><path d="M 383.101562 641 L 764 641 L 764 724.976562 L 383.101562 724.976562 Z M 383.101562 641 " clip-rule="nonzero"/></clipPath></defs><g clip-path="url(#215ffb129a)"><g transform="matrix(1, 0, 0, 1, 7, 194)"><g clip-path="url(#6827c23107)"><g clip-path="url(#2ed6ce47ea)"><path fill="#ffffff" d="M 0.554688 0.0742188 L 1484.335938 0.0742188 L 1484.335938 776.859375 L 0.554688 776.859375 Z M 0.554688 0.0742188 " fill-opacity="1" fill-rule="nonzero"/></g></g></g></g><g clip-path="url(#4dc1b865eb)"><path stroke-linecap="butt" transform="matrix(0.75, 0, 0, 0.75, 7.557832, 194.074886)" fill="none" stroke-linejoin="miter" d="M 0.00101612 -0.000889245 L 1979.834647 -0.000889245 L 1979.834647 1035.702391 L 0.00101612 1035.702391 Z M 0.00101612 -0.000889245 " stroke="#ed3a1a" stroke-width="26" stroke-opacity="1" stroke-miterlimit="4"/></g><g clip-path="url(#70eb4779b3)"><path fill="#ed3a1a" d="M 1205.539062 1300.664062 C 1240.859375 1279.050781 1263.53125 1236.347656 1263.53125 1196.808594 C 1263.53125 1140.398438 1217.664062 1077.132812 1154.925781 1077.132812 C 1092.71875 1077.132812 1046.851562 1140.398438 1046.851562 1196.808594 C 1046.851562 1236.347656 1069.519531 1279.050781 1104.84375 1300.664062 C 1021.019531 1322.808594 959.863281 1399.253906 959.863281 1489.402344 C 959.863281 1495.203125 965.136719 1499.949219 970.933594 1499.949219 L 1339.449219 1499.949219 C 1345.246094 1499.949219 1349.992188 1495.203125 1349.992188 1489.402344 C 1349.992188 1399.253906 1288.835938 1322.808594 1205.539062 1300.664062 Z M 1068.464844 1196.808594 C 1068.464844 1140.921875 1114.332031 1099.273438 1154.925781 1099.273438 C 1195.523438 1099.273438 1241.914062 1140.921875 1241.914062 1196.808594 C 1241.914062 1252.164062 1195.523438 1294.339844 1154.925781 1294.339844 C 1114.332031 1294.339844 1068.464844 1252.164062 1068.464844 1196.808594 Z M 982.003906 1478.332031 C 987.804688 1387.652344 1063.722656 1315.953125 1154.925781 1315.953125 C 1246.660156 1315.953125 1322.578125 1387.652344 1327.847656 1478.332031 Z M 982.003906 1478.332031 " fill-opacity="1" fill-rule="evenodd"/></g><path stroke-linecap="butt" transform="matrix(-0.236951, -0.711586, 0.711586, -0.236951, 974.047797, 1327.880962)" fill="none" stroke-linejoin="miter" d="M 0.000519267 8.002569 L 609.139288 7.997262 " stroke="#ed3a1a" stroke-width="16" stroke-opacity="1" stroke-miterlimit="4"/><g clip-path="url(#f17a14062a)"><path fill="#ed3a1a" d="M 352.171875 1335.964844 C 381.242188 1318.175781 399.894531 1283.035156 399.894531 1250.496094 C 399.894531 1204.074219 362.152344 1152.015625 310.523438 1152.015625 C 259.328125 1152.015625 221.585938 1204.074219 221.585938 1250.496094 C 221.585938 1283.035156 240.238281 1318.175781 269.308594 1335.964844 C 200.328125 1354.1875 150 1417.09375 150 1491.28125 C 150 1496.054688 154.339844 1499.960938 159.109375 1499.960938 L 462.371094 1499.960938 C 467.140625 1499.960938 471.046875 1496.054688 471.046875 1491.28125 C 471.046875 1417.09375 420.71875 1354.1875 352.171875 1335.964844 Z M 239.371094 1250.496094 C 239.371094 1204.507812 277.117188 1170.234375 310.523438 1170.234375 C 343.929688 1170.234375 382.109375 1204.507812 382.109375 1250.496094 C 382.109375 1296.050781 343.929688 1330.757812 310.523438 1330.757812 C 277.117188 1330.757812 239.371094 1296.050781 239.371094 1250.496094 Z M 168.222656 1482.171875 C 172.992188 1407.550781 235.46875 1348.546875 310.523438 1348.546875 C 386.011719 1348.546875 448.488281 1407.550781 452.824219 1482.171875 Z M 168.222656 1482.171875 " fill-opacity="1" fill-rule="evenodd"/></g><g clip-path="url(#b76ee99003)"><path fill="#ed3a1a" d="M 427.84375 490.929688 C 427.867188 486.59375 428.042969 482.242188 428.308594 477.890625 C 428.40625 477.792969 428.492188 477.683594 428.566406 477.570312 C 428.871094 477.113281 428.984375 476.542969 428.792969 475.929688 C 428.730469 475.738281 428.628906 475.542969 428.503906 475.34375 C 428.535156 474.917969 428.558594 474.484375 428.566406 474.039062 C 428.566406 474.03125 428.570312 474.023438 428.570312 474.011719 L 428.566406 474.011719 C 428.566406 473.980469 428.570312 473.953125 428.570312 473.921875 L 428.574219 473.769531 L 428.574219 473.746094 C 428.589844 471.515625 426.792969 469.695312 424.5625 469.683594 C 422.878906 469.671875 421.433594 470.691406 420.816406 472.152344 C 418.003906 471.625 415.152344 471.515625 412.347656 471.617188 C 407.363281 471.855469 402.410156 472.859375 397.65625 474.863281 C 395.285156 475.882812 392.960938 477.167969 390.800781 478.867188 C 388.652344 480.5625 386.621094 482.707031 385.226562 485.453125 C 383.808594 488.164062 383.171875 491.445312 383.460938 494.507812 C 383.714844 497.585938 384.804688 500.375 385.996094 502.773438 C 387.324219 505.234375 389.140625 507.882812 392.234375 509.761719 C 392.996094 510.214844 393.871094 510.574219 394.722656 510.894531 C 395.609375 511.105469 396.527344 511.417969 397.421875 511.433594 L 398.777344 511.503906 C 399.226562 511.507812 399.644531 511.441406 400.074219 511.40625 C 400.957031 511.34375 401.742188 511.144531 402.527344 510.9375 C 405.644531 510.054688 408.074219 508.515625 410.210938 506.875 C 412.339844 505.214844 414.171875 503.386719 415.851562 501.476562 C 417.957031 499.074219 419.800781 496.535156 421.445312 493.875 C 421.996094 498.839844 422.828125 503.796875 424.1875 508.667969 C 425.519531 512.761719 429.386719 511.503906 428.835938 507.660156 C 428.03125 502.171875 427.816406 496.554688 427.84375 490.929688 Z M 416.359375 484.914062 C 414.253906 488.636719 411.773438 492.234375 408.949219 495.324219 C 407.542969 496.871094 406.054688 498.300781 404.519531 499.480469 C 402.996094 500.660156 401.382812 501.574219 400.019531 501.949219 C 399.683594 502.039062 399.347656 502.144531 399.070312 502.144531 C 398.925781 502.152344 398.769531 502.203125 398.640625 502.195312 C 398.511719 502.179688 398.386719 502.171875 398.257812 502.171875 C 397.984375 502.214844 397.800781 502.054688 397.554688 502.0625 C 397.335938 501.949219 397.113281 501.894531 396.878906 501.765625 C 395.964844 501.257812 394.894531 500.058594 393.996094 498.488281 C 392.125 495.054688 391.582031 492.054688 392.851562 489.175781 C 394.09375 486.257812 397.257812 483.59375 400.875 481.699219 C 404.53125 479.796875 408.695312 478.519531 412.921875 477.882812 C 415.148438 477.558594 417.4375 477.40625 419.667969 477.519531 C 419.484375 478.082031 419.292969 478.644531 419.070312 479.203125 C 418.324219 481.125 417.390625 483.042969 416.359375 484.914062 Z M 482.683594 491.398438 C 479.882812 493.136719 476.738281 494.210938 473.664062 494.859375 C 472.015625 495.203125 470.382812 495.425781 468.761719 495.566406 C 469.238281 502.820312 469.605469 510.167969 469.652344 517.671875 C 469.566406 519.191406 465.582031 519.933594 464.972656 518.515625 C 462.289062 511.136719 460.367188 503.46875 459.492188 495.613281 C 455.429688 495.359375 451.523438 494.867188 447.546875 494.652344 C 446.589844 494.503906 445.492188 490.597656 446.464844 490.019531 C 449.367188 488.558594 452.480469 487.683594 455.527344 487.152344 C 456.683594 486.953125 457.828125 486.816406 458.96875 486.703125 C 458.941406 479.292969 459.953125 471.796875 462.363281 464.695312 C 462.863281 463.457031 466.882812 464.207031 467 465.449219 C 467.125 472.554688 467.632812 479.5 468.132812 486.480469 C 472.601562 486.636719 476.859375 487.066406 481.207031 486.941406 C 482 487.011719 483.46875 490.832031 482.683594 491.398438 Z M 525.019531 512.273438 C 521.460938 512.871094 517.675781 513.050781 513.828125 512.207031 C 510.011719 511.40625 506.113281 509.550781 503.132812 506.582031 C 500.132812 503.644531 498.117188 499.878906 496.984375 496.074219 C 495.84375 492.253906 495.496094 488.359375 495.636719 484.582031 C 495.96875 477.015625 498.113281 469.820312 501.535156 463.355469 C 504.980469 456.9375 509.722656 451.054688 515.945312 447.074219 C 517.796875 446.011719 520.027344 449.453125 518.855469 450.757812 C 514.425781 455.289062 511.277344 460.945312 508.949219 466.796875 C 506.644531 472.671875 505.226562 478.890625 504.96875 484.933594 C 504.734375 490.953125 505.824219 496.859375 509.121094 500.976562 C 512.359375 505.117188 518.292969 507.261719 524.742188 507.523438 C 526.871094 507.753906 527.453125 511.773438 525.019531 512.273438 Z M 578.480469 476.464844 C 576.90625 475.035156 575.3125 473.609375 573.347656 472.390625 C 571.402344 471.175781 569.160156 470.066406 566.441406 469.59375 C 565.101562 469.335938 563.617188 469.332031 562.160156 469.523438 C 560.703125 469.761719 559.253906 470.210938 558.003906 470.898438 C 555.46875 472.242188 553.609375 474.152344 552.230469 476.054688 C 550.601562 478.335938 549.4375 480.660156 548.515625 483 C 548.292969 481.914062 548.074219 480.828125 547.867188 479.738281 C 546.628906 473.125 545.695312 466.386719 544.941406 459.605469 C 544.53125 456.542969 540.441406 456.632812 540.25 459.792969 C 540.050781 466.734375 540.179688 473.710938 540.804688 480.714844 C 541.453125 487.71875 542.523438 494.757812 544.863281 501.785156 C 545.351562 503.246094 546.617188 504.402344 548.242188 504.671875 C 550.582031 505.058594 552.796875 503.472656 553.1875 501.132812 L 553.230469 500.871094 C 553.238281 500.828125 553.25 500.785156 553.253906 500.742188 C 556.171875 502.636719 559.613281 503.527344 562.917969 503.757812 C 567.238281 504.039062 571.570312 503.308594 575.671875 501.390625 C 577.710938 500.414062 579.714844 499.109375 581.441406 497.207031 C 583.144531 495.335938 584.585938 492.671875 584.746094 489.726562 C 584.953125 486.796875 584.039062 484.066406 582.828125 481.90625 C 581.59375 479.71875 580.046875 478.046875 578.480469 476.464844 Z M 575.441406 492.125 C 574.699219 493.117188 573.566406 494.070312 572.25 494.855469 C 569.601562 496.429688 566.289062 497.402344 563.023438 497.550781 C 559.890625 497.703125 556.71875 497.109375 554.300781 495.449219 C 554.691406 493.746094 555.136719 492.070312 555.648438 490.441406 C 556.695312 487.125 558.039062 483.914062 559.75 481.585938 C 560.59375 480.414062 561.527344 479.59375 562.347656 479.152344 C 563.175781 478.695312 563.910156 478.582031 564.964844 478.730469 C 566 478.878906 567.277344 479.390625 568.566406 480.148438 C 569.871094 480.882812 571.167969 481.953125 572.457031 483.019531 C 573.601562 484.085938 574.703125 485.1875 575.402344 486.292969 C 576.105469 487.402344 576.457031 488.414062 576.480469 489.300781 C 576.53125 490.1875 576.179688 491.121094 575.441406 492.125 Z M 633.5 488.359375 C 629.652344 489.355469 625.804688 490.082031 621.945312 490.546875 C 622.304688 496.5625 622.445312 502.570312 622.519531 508.757812 C 622.4375 510.011719 618.496094 510.964844 617.878906 509.800781 C 615.199219 503.855469 613.53125 497.519531 612.75 491.132812 C 607.703125 491.167969 602.625 490.746094 597.507812 489.832031 C 596.480469 489.558594 596.132812 485.519531 597.128906 485.089844 C 602.101562 483.4375 607.144531 482.386719 612.21875 481.9375 C 612.246094 476.355469 612.890625 470.800781 614.027344 465.316406 C 614.328125 464.269531 618.417969 464.273438 618.722656 465.308594 C 619.894531 470.851562 620.699219 476.339844 621.257812 481.789062 C 625.347656 482.015625 629.449219 482.632812 633.546875 483.667969 C 634.414062 483.976562 634.339844 488.0625 633.5 488.359375 Z M 686.5625 495.609375 C 684.183594 498.15625 681.359375 500.195312 678.300781 501.851562 C 675.226562 503.480469 671.882812 504.710938 668.253906 505.292969 C 664.644531 505.839844 660.625 505.789062 656.660156 504.132812 C 654.695312 503.308594 652.808594 502.042969 651.28125 500.429688 C 649.746094 498.824219 648.589844 496.914062 647.851562 494.984375 C 647.117188 493.03125 646.628906 491.140625 646.503906 489.136719 C 646.460938 488.644531 646.40625 488.148438 646.378906 487.652344 L 646.433594 486.140625 C 646.460938 485.636719 646.476562 485.132812 646.53125 484.632812 L 646.804688 483.140625 C 647.59375 479.160156 649.628906 475.589844 652.175781 472.851562 C 654.738281 470.089844 657.773438 468.039062 660.964844 466.566406 C 664.160156 465.097656 667.535156 464.167969 670.972656 463.835938 C 672.984375 463.746094 673.433594 467.824219 671.9375 468.429688 C 666.46875 470.390625 661.46875 473.871094 658.449219 478.089844 C 656.949219 480.195312 656.007812 482.449219 655.714844 484.71875 L 655.59375 485.566406 C 655.585938 485.855469 655.605469 486.144531 655.605469 486.433594 L 655.59375 487.292969 L 655.71875 488.167969 C 655.800781 489.332031 656.164062 490.527344 656.535156 491.535156 C 657.335938 493.582031 658.546875 494.917969 660.382812 495.871094 C 662.226562 496.816406 664.746094 497.214844 667.40625 497.132812 C 672.757812 496.90625 678.597656 495.09375 683.472656 491.992188 C 685.074219 491.015625 688.109375 493.738281 686.5625 495.609375 Z M 713.660156 460.472656 C 716.863281 466.753906 717.847656 473.652344 717.65625 480.277344 C 717.40625 486.925781 715.925781 493.441406 713.304688 499.507812 C 711.984375 502.539062 710.34375 505.453125 708.332031 508.136719 C 706.320312 510.808594 703.925781 513.289062 701 515.132812 C 698.878906 516.304688 696.859375 512.75 698.019531 511.429688 C 699.886719 509.449219 701.359375 507.058594 702.59375 504.550781 C 703.824219 502.035156 704.816406 499.378906 705.609375 496.660156 C 707.191406 491.21875 708.105469 485.558594 708.320312 479.957031 C 708.488281 474.367188 707.984375 468.777344 706.203125 463.816406 C 704.445312 458.871094 701.214844 454.667969 696.160156 452.378906 C 694.824219 451.660156 695.535156 447.613281 697.515625 447.882812 C 700.871094 448.472656 704.230469 449.953125 707.027344 452.203125 C 709.84375 454.441406 712.0625 457.359375 713.660156 460.472656 Z M 739.3125 473.523438 C 746.167969 471.609375 752.996094 470.421875 759.785156 469.714844 C 766.582031 468.980469 773.335938 468.84375 780.175781 468.519531 C 781.15625 468.558594 782.386719 472.460938 781.476562 473.03125 C 774.914062 476.484375 767.800781 478.234375 760.757812 479.003906 C 753.691406 479.75 746.609375 479.421875 739.570312 478.273438 C 738.382812 477.984375 738.167969 473.9375 739.3125 473.523438 Z M 785.550781 491.839844 C 781.933594 493.875 777.933594 495.097656 773.992188 495.828125 C 770.035156 496.558594 766.097656 496.8125 762.257812 496.828125 C 754.550781 496.867188 747.273438 495.851562 739.933594 495.582031 C 738.691406 495.4375 737.8125 491.476562 739.085938 490.902344 C 746.738281 488.007812 754.769531 487.519531 762.238281 487.488281 C 769.765625 487.433594 776.890625 488.121094 784.046875 487.394531 C 785.074219 487.386719 786.566406 491.199219 785.550781 491.839844 Z M 840.230469 515.394531 C 836.375 516.113281 832.328125 516.304688 828.179688 515.824219 C 824.058594 515.332031 819.667969 513.929688 815.996094 510.980469 C 812.308594 508.074219 809.769531 503.753906 808.617188 499.429688 C 807.449219 495.074219 807.398438 490.734375 807.824219 486.613281 C 808.738281 478.34375 811.609375 470.792969 815.304688 463.832031 C 819.074219 456.910156 823.714844 450.460938 829.757812 445.234375 C 831.578125 443.816406 834.289062 446.890625 833.128906 448.5 C 828.777344 454.179688 825.441406 460.734375 822.683594 467.347656 C 819.984375 473.976562 817.835938 480.867188 817.113281 487.601562 C 816.761719 490.953125 816.769531 494.265625 817.414062 497.242188 C 818.070312 500.214844 819.347656 502.773438 821.378906 504.792969 C 823.394531 506.824219 826.25 508.289062 829.488281 509.1875 C 832.722656 510.078125 836.273438 510.589844 839.90625 510.648438 C 842.324219 510.84375 842.859375 514.867188 840.230469 515.394531 Z M 879.65625 487.730469 C 879.644531 483.367188 879.753906 478.53125 878.554688 473.558594 C 878.953125 473.324219 879.316406 472.988281 879.558594 472.589844 C 879.84375 472.121094 879.964844 471.5625 879.800781 470.988281 C 879.640625 470.394531 879.175781 469.824219 878.398438 469.457031 C 874.175781 467.640625 869.835938 467.414062 865.613281 467.613281 C 861.378906 467.851562 857.210938 468.746094 853.152344 470.273438 C 849.140625 471.875 845.085938 474.070312 841.867188 478.03125 C 840.289062 480.003906 839.019531 482.554688 838.621094 485.363281 C 838.203125 488.164062 838.707031 491.003906 839.660156 493.371094 C 840.117188 494.628906 840.6875 495.582031 841.261719 496.660156 L 842.308594 498.25 C 842.683594 498.773438 843.167969 499.300781 843.605469 499.816406 C 844.0625 500.328125 844.6875 500.820312 845.238281 501.300781 C 845.859375 501.765625 846.574219 502.195312 847.292969 502.570312 C 848.828125 503.253906 850.609375 503.722656 852.28125 503.605469 C 855.710938 503.480469 858.195312 502.042969 860.199219 500.675781 C 862.214844 499.25 863.832031 497.664062 865.304688 496.042969 C 868.210938 492.777344 870.515625 489.3125 872.605469 485.753906 C 872.628906 485.714844 872.648438 485.675781 872.671875 485.636719 C 872.761719 486.457031 872.851562 487.285156 872.941406 488.128906 C 873.5 493.183594 874.449219 498.902344 877.464844 503.679688 C 879.773438 506.910156 882.902344 504.230469 881.675781 501.46875 C 879.851562 497.285156 879.65625 492.679688 879.65625 487.730469 Z M 865.039062 481.128906 C 863.015625 484.238281 860.835938 487.246094 858.46875 489.789062 C 857.289062 491.046875 856.054688 492.183594 854.859375 493.015625 C 853.675781 493.859375 852.511719 494.316406 851.980469 494.28125 C 851.679688 494.34375 851.53125 494.214844 851.265625 494.167969 C 851.132812 494.074219 850.988281 494.011719 850.820312 493.902344 C 850.652344 493.722656 850.464844 493.644531 850.273438 493.421875 C 850.085938 493.183594 849.878906 493.007812 849.679688 492.746094 L 849.082031 491.894531 C 848.730469 491.25 848.261719 490.527344 848.046875 489.9375 C 846.964844 487.449219 847.089844 485.445312 848.640625 483.109375 C 850.207031 480.808594 853.046875 478.738281 856.15625 477.1875 C 859.304688 475.648438 862.78125 474.484375 866.332031 473.851562 C 867.371094 473.667969 868.429688 473.523438 869.488281 473.429688 C 869.003906 474.390625 868.472656 475.382812 867.925781 476.347656 C 867.011719 477.96875 866.046875 479.566406 865.039062 481.128906 Z M 927.328125 487.855469 C 924.6875 487.992188 921.828125 488.589844 918.988281 489.136719 C 917.824219 489.367188 916.652344 489.59375 915.476562 489.820312 C 916.019531 496.699219 916.445312 503.546875 917.25 510.464844 C 917.316406 511.875 913.484375 513.207031 912.714844 511.894531 C 909.390625 505.429688 907.417969 498.4375 906.390625 491.386719 C 901.839844 492.054688 897.203125 492.535156 892.585938 493.035156 C 891.566406 493.058594 889.898438 489.363281 890.808594 488.625 C 895.417969 485.492188 900.414062 483.460938 905.597656 482.21875 C 905.371094 474.980469 906.050781 467.746094 907.550781 460.65625 C 907.890625 459.453125 911.976562 459.613281 912.242188 460.804688 C 913.28125 467.601562 914.070312 474.304688 914.703125 480.960938 C 915.960938 480.914062 917.226562 480.90625 918.503906 480.980469 C 921.800781 481.195312 925.195312 481.703125 928.546875 483.320312 C 929.507812 483.878906 928.0625 487.71875 927.328125 487.855469 Z M 981.558594 489.480469 C 981.480469 486.832031 980.71875 484.265625 979.5625 482.097656 C 978.410156 479.921875 976.949219 478.042969 975.375 476.386719 C 973.8125 474.835938 972.265625 473.328125 970.230469 471.976562 C 968.234375 470.675781 965.800781 469.289062 962.363281 469.179688 C 961.542969 469.125 960.617188 469.300781 959.769531 469.460938 C 958.929688 469.722656 958.039062 469.984375 957.328125 470.433594 C 955.765625 471.246094 954.703125 472.351562 953.75 473.425781 C 951.996094 475.605469 951.019531 477.78125 950.207031 479.875 C 949.539062 481.660156 949.015625 483.410156 948.574219 485.140625 C 948.03125 481.613281 947.632812 478 947.261719 474.363281 C 946.203125 464.328125 945.449219 453.71875 941.738281 443.664062 C 940.242188 440.074219 936.476562 441.703125 937.25 445.058594 C 939.535156 454.574219 939.332031 464.605469 939.652344 474.859375 C 939.804688 480 940.058594 485.234375 940.828125 490.542969 C 941.601562 495.839844 942.917969 501.246094 945.253906 506.390625 C 945.773438 507.53125 946.769531 508.464844 948.058594 508.859375 C 950.226562 509.523438 952.503906 508.480469 953.464844 506.503906 C 956.359375 507.511719 959.476562 507.90625 962.539062 507.648438 C 967.019531 507.265625 971.429688 505.640625 975.117188 502.667969 C 976.949219 501.175781 978.597656 499.308594 979.789062 497.050781 C 980.988281 494.804688 981.652344 492.132812 981.558594 489.480469 Z M 970.4375 497.304688 C 968.191406 499.472656 965.066406 501.039062 961.777344 501.648438 C 959.480469 502.078125 957.101562 502.035156 954.8125 501.503906 C 954.949219 500.839844 955.078125 500.1875 955.207031 499.535156 L 956.273438 493.761719 C 956.984375 490.007812 957.757812 486.316406 958.917969 483.144531 C 959.488281 481.582031 960.195312 480.152344 960.894531 479.253906 C 961.242188 478.871094 961.554688 478.519531 961.757812 478.441406 C 961.859375 478.328125 961.953125 478.378906 962.027344 478.292969 C 962.140625 478.320312 962.1875 478.222656 962.34375 478.253906 C 962.867188 478.210938 964.113281 478.605469 965.382812 479.421875 C 966.664062 480.179688 968.011719 481.359375 969.285156 482.511719 C 971.652344 484.769531 973.375 487.359375 973.589844 489.898438 C 973.902344 492.410156 972.699219 495.125 970.4375 497.304688 Z M 1005.429688 478.003906 L 1005.484375 480.890625 C 1005.351562 488.628906 1002.875 496.277344 998.878906 502.523438 C 994.941406 508.847656 989.882812 514.046875 984.539062 518.605469 C 982.660156 520.085938 979.769531 517.242188 981.074219 515.347656 C 985.167969 509.890625 988.945312 504.339844 991.695312 498.566406 C 994.511719 492.8125 996.003906 486.8125 996.144531 480.738281 L 996.121094 478.449219 C 996.089844 477.683594 995.996094 476.921875 995.949219 476.15625 C 995.859375 474.632812 995.585938 473.195312 995.265625 471.601562 C 994.613281 468.476562 993.746094 465.296875 992.734375 462.203125 C 991.707031 459.113281 990.53125 456.074219 989.078125 453.296875 C 987.644531 450.566406 985.820312 447.933594 983.730469 446.902344 C 983.449219 446.734375 983.277344 446.390625 983.144531 445.949219 C 983.011719 445.5 982.925781 444.933594 982.957031 444.386719 C 982.984375 443.839844 983.140625 443.304688 983.492188 442.914062 C 983.84375 442.511719 984.398438 442.277344 985.046875 442.398438 C 987.335938 442.875 989.1875 444.085938 990.730469 445.367188 C 992.269531 446.675781 993.558594 448.128906 994.710938 449.632812 C 997.007812 452.648438 998.796875 455.875 1000.328125 459.191406 C 1001.851562 462.515625 1003.101562 465.921875 1004.066406 469.507812 C 1004.53125 471.269531 1004.980469 473.222656 1005.15625 475.144531 C 1005.253906 476.09375 1005.378906 477.046875 1005.429688 478.003906 Z M 1057.238281 479.976562 C 1058.113281 480.625 1056.246094 484.277344 1055.511719 484.34375 C 1052.941406 484.191406 1050.339844 484.644531 1047.6875 485.1875 C 1046.203125 485.503906 1044.707031 485.855469 1043.199219 486.222656 C 1044.199219 494.621094 1044.585938 503.402344 1043.21875 512.132812 C 1042.902344 513.632812 1038.847656 513.617188 1038.464844 512.210938 C 1036.894531 504.304688 1035.152344 496.53125 1034.078125 488.449219 C 1030.304688 489.332031 1026.433594 490.164062 1022.4375 490.910156 C 1021.402344 491.011719 1019.585938 487.386719 1020.390625 486.617188 C 1024.25 483.488281 1028.554688 481.015625 1033.210938 479.324219 C 1032.882812 473.066406 1033.144531 466.671875 1034.464844 460.378906 C 1034.804688 459.125 1038.886719 459.363281 1039.15625 460.550781 C 1039.984375 466.148438 1041.011719 471.648438 1041.914062 477.222656 C 1043.632812 477.023438 1045.390625 476.945312 1047.175781 477.035156 C 1050.535156 477.214844 1054.136719 477.957031 1057.238281 479.976562 Z M 1116.019531 493.847656 C 1114.402344 497.863281 1111.230469 501.53125 1107.140625 503.671875 C 1103.070312 505.847656 1098.367188 506.585938 1093.886719 506.140625 C 1089.386719 505.703125 1085.011719 504.160156 1081.1875 501.609375 C 1077.375 499.058594 1074.125 495.378906 1072.230469 490.960938 C 1071.742188 489.855469 1071.390625 488.738281 1071.058594 487.546875 C 1070.730469 486.089844 1070.597656 484.695312 1070.65625 483.460938 C 1070.730469 480.945312 1071.21875 478.734375 1071.847656 476.628906 C 1073.144531 472.445312 1075.027344 468.671875 1077.402344 465.179688 C 1079.8125 461.71875 1082.59375 458.4375 1086.515625 455.957031 C 1088.476562 454.761719 1090.875 453.726562 1093.65625 453.75 C 1095.035156 453.839844 1096.46875 454.125 1097.636719 454.816406 C 1098.851562 455.4375 1099.777344 456.332031 1100.566406 457.226562 C 1102.152344 459.53125 1098.457031 461.511719 1097.21875 460.519531 C 1096.019531 459.589844 1094.90625 459.351562 1093.859375 459.527344 C 1092.777344 459.761719 1091.558594 460.445312 1090.390625 461.449219 C 1088.042969 463.480469 1086.023438 466.425781 1084.363281 469.464844 C 1082.699219 472.519531 1081.378906 475.835938 1080.5625 479.054688 C 1080.167969 480.652344 1079.917969 482.253906 1079.925781 483.589844 C 1079.894531 484.285156 1080.015625 484.816406 1080.09375 485.238281 C 1080.296875 485.894531 1080.515625 486.617188 1080.8125 487.273438 C 1081.96875 489.941406 1083.90625 492.332031 1086.394531 494.199219 C 1088.890625 496.050781 1091.878906 497.386719 1095.003906 498.015625 C 1098.128906 498.65625 1101.394531 498.546875 1104.335938 497.515625 C 1107.285156 496.496094 1109.898438 494.492188 1111.796875 491.660156 C 1113.023438 489.828125 1116.960938 490.984375 1116.019531 493.847656 Z M 1116.019531 493.847656 " fill-opacity="1" fill-rule="nonzero"/></g><g clip-path="url(#177cf45f79)"><path fill="#ed3a1a" d="M 426.210938 576.5625 C 426.867188 588.5 426.804688 600.324219 427.148438 612.082031 C 427.203125 616.472656 423.484375 616.855469 422.777344 612.445312 C 421.773438 605.160156 421.039062 597.867188 420.308594 590.609375 C 420.015625 591.21875 419.730469 591.832031 419.433594 592.441406 C 417.136719 597.101562 414.675781 601.71875 411.65625 606.207031 C 410.128906 608.445312 408.484375 610.65625 406.390625 612.769531 C 405.332031 613.824219 404.160156 614.859375 402.679688 615.792969 C 401.9375 616.257812 401.113281 616.695312 400.140625 617.039062 C 399.195312 617.386719 398.066406 617.628906 396.863281 617.636719 C 394.40625 617.722656 391.921875 616.476562 390.515625 615.117188 C 389.023438 613.746094 388.105469 612.296875 387.355469 610.910156 C 386.621094 609.519531 386.054688 608.148438 385.59375 606.796875 C 385.359375 606.121094 385.152344 605.453125 384.953125 604.78125 C 384.769531 604.097656 384.570312 603.492188 384.417969 602.707031 C 383.074219 596.683594 383.859375 590.859375 385.519531 585.527344 C 387.230469 580.195312 389.847656 575.1875 393.671875 570.929688 C 394.636719 569.875 395.679688 568.855469 396.753906 567.976562 C 397.28125 567.515625 397.816406 567.0625 398.417969 566.652344 C 399.019531 566.242188 399.550781 565.785156 400.207031 565.425781 C 402.660156 563.863281 405.660156 562.710938 408.730469 562.511719 C 411.804688 562.285156 414.699219 562.914062 417.265625 563.742188 C 419.851562 564.582031 422.214844 565.613281 424.554688 566.582031 C 427.914062 568.042969 426.757812 571.636719 423.113281 570.660156 C 418.226562 569.230469 413.390625 567.59375 409.375 568.296875 C 407.371094 568.621094 405.53125 569.488281 403.785156 570.792969 C 402.074219 572.09375 400.355469 573.75 399.003906 575.464844 C 396.222656 578.988281 394.246094 583.320312 393.058594 587.730469 C 391.875 592.128906 391.554688 596.796875 392.570312 600.726562 C 393.113281 602.859375 393.933594 605.15625 394.859375 606.839844 C 395.320312 607.6875 395.851562 608.382812 396.246094 608.726562 C 396.347656 608.84375 396.425781 608.847656 396.5 608.933594 C 396.5625 608.941406 396.621094 609.015625 396.652344 609.003906 C 396.726562 609.039062 396.722656 609.035156 396.796875 609.03125 C 396.910156 609.046875 397.449219 608.921875 398.132812 608.484375 C 398.808594 608.058594 399.578125 607.421875 400.328125 606.683594 C 401.832031 605.1875 403.285156 603.324219 404.65625 601.378906 C 407.398438 597.457031 409.875 593.140625 412.242188 588.746094 C 413.429688 586.546875 414.585938 584.316406 415.734375 582.066406 L 417.464844 578.671875 C 418.054688 577.523438 418.617188 576.40625 419.308594 575.15625 L 419.398438 574.996094 C 420.375 573.238281 422.589844 572.605469 424.34375 573.582031 C 425.472656 574.207031 426.136719 575.363281 426.210938 576.5625 Z M 499.105469 585.5625 C 493.195312 584.984375 487.347656 583.917969 481.207031 583.4375 C 481.28125 575.820312 481.191406 568.125 480.640625 560.351562 C 480.464844 558.972656 476.707031 558.6875 476.324219 560.023438 C 474.597656 567.65625 473.3125 575.390625 472.773438 583.238281 C 470.453125 583.332031 468.113281 583.5625 465.769531 584 C 461.890625 584.714844 458.007812 586.015625 454.574219 588.0625 C 453.421875 588.816406 454.917969 592.246094 456.105469 592.167969 C 461.570312 591.328125 466.941406 591.476562 472.496094 591.675781 C 472.539062 600.613281 473.667969 609.683594 476.488281 618.300781 C 477.089844 619.886719 480.753906 619.144531 480.808594 617.535156 C 480.597656 608.9375 480.890625 600.464844 481.070312 591.910156 C 483.394531 591.933594 485.757812 591.894531 488.152344 591.742188 C 491.925781 591.5 495.796875 590.976562 499.558594 589.867188 C 500.625 589.488281 500.117188 585.75 499.105469 585.5625 Z M 579.039062 579.980469 C 580.554688 582.808594 581.257812 586.128906 581.066406 589.28125 C 580.890625 592.445312 579.925781 595.414062 578.53125 598.027344 C 577.136719 600.652344 575.28125 602.929688 573.167969 604.871094 C 568.941406 608.726562 563.566406 611.378906 557.773438 611.859375 C 553.542969 612.210938 549.210938 611.238281 545.570312 609.226562 C 545.425781 609.683594 545.273438 610.140625 545.097656 610.601562 L 545.082031 610.640625 C 544.28125 612.765625 541.90625 613.839844 539.78125 613.035156 C 538.542969 612.570312 537.65625 611.550781 537.296875 610.382812 C 533.832031 598.964844 532.648438 587.214844 532.367188 575.683594 C 532.09375 564.128906 532.742188 552.714844 533.300781 541.371094 C 533.59375 536.921875 537.363281 536.90625 537.632812 541.390625 C 538.09375 552.785156 538.292969 564.140625 539.207031 575.324219 C 539.460938 578.40625 539.769531 581.480469 540.152344 584.535156 C 540.449219 582.371094 540.859375 580.15625 541.5625 577.863281 C 541.78125 577.152344 542.019531 576.441406 542.332031 575.714844 C 542.597656 574.996094 542.992188 574.261719 543.367188 573.539062 C 544.210938 572.101562 545.226562 570.613281 546.730469 569.40625 L 547.269531 568.949219 C 547.464844 568.8125 547.671875 568.683594 547.875 568.554688 C 548.285156 568.300781 548.6875 568.03125 549.113281 567.8125 C 549.988281 567.441406 550.878906 567.019531 551.773438 566.851562 C 552.21875 566.753906 552.679688 566.628906 553.117188 566.566406 L 554.421875 566.449219 C 555.316406 566.34375 556.09375 566.460938 556.929688 566.484375 C 560.152344 566.777344 562.886719 567.734375 565.476562 568.789062 L 567.378906 569.621094 C 568.015625 569.941406 568.65625 570.289062 569.289062 570.625 C 570.574219 571.242188 571.773438 572.167969 572.996094 572.976562 C 575.351562 574.828125 577.535156 577.128906 579.039062 579.980469 Z M 573.59375 589.007812 C 573.605469 587.101562 573.128906 585.308594 572.1875 583.710938 C 571.25 582.109375 569.851562 580.699219 568.195312 579.464844 C 567.269531 578.929688 566.457031 578.289062 565.429688 577.847656 L 563.960938 577.117188 L 562.363281 576.46875 C 560.257812 575.660156 558.117188 575.023438 556.277344 574.90625 C 555.847656 574.921875 555.355469 574.828125 554.988281 574.914062 C 554.792969 574.933594 554.597656 574.953125 554.402344 574.964844 C 554.214844 574.992188 554.066406 575.058594 553.890625 575.09375 C 553.527344 575.136719 553.292969 575.328125 552.988281 575.417969 C 552.855469 575.492188 552.742188 575.59375 552.609375 575.667969 L 552.410156 575.785156 L 552.238281 575.953125 C 551.742188 576.320312 551.308594 576.980469 550.875 577.710938 C 550.679688 578.117188 550.457031 578.492188 550.289062 578.96875 C 550.203125 579.203125 550.101562 579.414062 550.023438 579.65625 L 549.789062 580.402344 C 549.171875 582.40625 548.785156 584.710938 548.5 587.089844 C 548.214844 589.472656 548.019531 591.945312 547.816406 594.472656 C 547.613281 597 547.410156 599.582031 547.050781 602.25 C 546.949219 602.984375 546.835938 603.726562 546.707031 604.476562 C 546.980469 604.625 547.257812 604.769531 547.527344 604.921875 L 549.078125 605.535156 L 549.460938 605.6875 L 549.859375 605.789062 L 550.65625 605.996094 C 552.785156 606.511719 554.984375 606.59375 557.132812 606.265625 C 561.441406 605.585938 565.480469 603.238281 568.523438 600.097656 C 571.578125 596.96875 573.585938 592.832031 573.59375 589.007812 Z M 646.878906 574.332031 C 643.722656 574.5625 640.558594 574.371094 637.359375 574.144531 C 634.113281 573.886719 630.878906 573.632812 627.644531 573.375 C 621.085938 572.90625 614.308594 572.636719 607.332031 573.320312 C 606.148438 573.523438 605.800781 577.242188 606.882812 577.683594 C 613.382812 579.785156 620.042969 581.472656 627.027344 581.964844 C 630.511719 582.207031 634.070312 582.164062 637.648438 581.671875 C 641.214844 581.171875 644.851562 580.234375 648.179688 578.460938 C 649.113281 577.890625 647.777344 574.359375 646.878906 574.332031 Z M 646.464844 593.144531 C 639.898438 593.214844 633.453125 592.667969 626.851562 592.535156 C 620.261719 592.367188 613.53125 592.488281 606.644531 593.300781 C 605.480469 593.523438 605.160156 597.25 606.265625 597.671875 C 612.875 599.667969 619.671875 600.976562 626.644531 601.144531 C 630.128906 601.222656 633.652344 601.015625 637.164062 600.429688 C 640.667969 599.839844 644.175781 598.875 647.480469 597.351562 C 648.40625 596.855469 647.402344 593.21875 646.464844 593.144531 Z M 732.921875 588.332031 C 733.113281 589.8125 732.921875 591.316406 732.558594 592.699219 C 732.355469 593.378906 732.082031 594.019531 731.820312 594.660156 C 731.496094 595.242188 731.183594 595.847656 730.824219 596.390625 C 729.359375 598.554688 727.523438 600.171875 725.585938 601.472656 C 721.679688 604.015625 717.28125 605.378906 712.75 605.625 C 710.480469 605.726562 708.164062 605.476562 705.9375 604.800781 C 704.214844 604.28125 702.554688 603.472656 701.082031 602.410156 C 700.992188 603.542969 700.902344 604.679688 700.804688 605.828125 L 700.792969 605.953125 C 700.597656 608.242188 698.582031 609.9375 696.296875 609.742188 C 694.683594 609.605469 693.367188 608.5625 692.796875 607.164062 C 688.882812 597.535156 687.160156 587.488281 686.46875 577.515625 C 685.832031 567.53125 686.292969 557.53125 688.015625 547.738281 C 688.78125 544.074219 692.496094 544.722656 692.3125 548.265625 C 691.703125 557.8125 692.128906 567.414062 693.382812 576.824219 C 693.777344 579.691406 694.25 582.546875 694.820312 585.375 C 695.316406 583.605469 695.964844 581.800781 696.921875 579.992188 C 697.492188 578.878906 698.265625 577.765625 699.148438 576.714844 C 700.09375 575.679688 701.167969 574.683594 702.460938 573.9375 C 705.027344 572.359375 708.050781 571.925781 710.609375 572.066406 C 713.210938 572.214844 715.507812 572.859375 717.648438 573.632812 L 719.226562 574.25 L 720.730469 574.9375 C 721.738281 575.382812 722.71875 575.972656 723.707031 576.492188 C 725.65625 577.703125 727.617188 578.976562 729.34375 580.914062 C 729.792969 581.339844 730.179688 581.910156 730.574219 582.441406 C 730.769531 582.714844 730.972656 582.96875 731.152344 583.261719 L 731.648438 584.191406 C 731.804688 584.503906 731.972656 584.808594 732.113281 585.132812 L 732.464844 586.171875 C 732.566406 586.523438 732.703125 586.859375 732.761719 587.226562 Z M 725.566406 589.285156 C 725.382812 588.296875 724.753906 587.257812 723.722656 586.238281 C 722.738281 585.199219 721.257812 584.316406 719.785156 583.480469 C 716.699219 581.890625 713.058594 580.535156 710.25 580.464844 C 708.839844 580.441406 707.722656 580.671875 706.871094 581.234375 C 706.421875 581.488281 706.03125 581.890625 705.621094 582.324219 C 705.238281 582.820312 704.839844 583.351562 704.511719 584.027344 C 703.117188 586.671875 702.378906 590.367188 701.890625 594.089844 C 701.746094 595.179688 701.628906 596.292969 701.519531 597.410156 C 701.53125 597.417969 701.542969 597.421875 701.558594 597.429688 C 701.914062 597.5625 702.273438 597.757812 702.628906 598.03125 C 705.34375 599.960938 708.851562 600.515625 712.285156 600.042969 C 715.710938 599.539062 719.101562 598.136719 721.757812 596.082031 C 723.066406 595.054688 724.175781 593.855469 724.871094 592.636719 C 725.589844 591.40625 725.761719 590.261719 725.566406 589.285156 Z M 777.402344 586.066406 C 774.085938 585.277344 770.789062 584.746094 767.480469 584.535156 C 766.851562 579.230469 765.871094 573.992188 764.683594 568.6875 C 764.398438 567.773438 760.628906 567.757812 760.355469 568.707031 C 759.242188 574.039062 758.859375 579.429688 759.03125 584.746094 C 755.523438 585.15625 752 585.996094 748.554688 587.417969 C 747.761719 587.832031 748.25 591.539062 749.058594 591.773438 C 752.644531 592.4375 756.183594 592.917969 759.753906 593.046875 C 760.46875 598.207031 761.652344 603.277344 763.140625 608.300781 C 763.546875 609.367188 767.277344 609.117188 767.515625 607.976562 C 768.210938 602.8125 768.363281 597.695312 768.144531 592.660156 C 771.320312 592.246094 774.503906 591.515625 777.652344 590.390625 C 778.324219 590.070312 778.082031 586.308594 777.402344 586.066406 Z M 831.917969 601.554688 C 830.191406 596.105469 829.011719 590.574219 827.777344 585.1875 C 827.640625 585.414062 827.507812 585.640625 827.367188 585.863281 C 825.203125 589.285156 822.6875 592.441406 819.707031 595.328125 C 818.203125 596.757812 816.570312 598.113281 814.703125 599.320312 C 812.832031 600.507812 810.71875 601.601562 808.082031 602.125 C 806.789062 602.40625 805.304688 602.4375 803.816406 602.238281 C 803.078125 602.089844 802.3125 601.90625 801.601562 601.632812 C 800.914062 601.3125 800.164062 601.03125 799.578125 600.582031 C 797.058594 598.902344 795.617188 596.632812 794.609375 594.546875 L 793.933594 592.960938 C 793.71875 592.375 793.53125 591.703125 793.351562 591.074219 C 793.242188 590.417969 793.113281 589.757812 793.058594 589.101562 C 793.042969 588.449219 792.980469 587.777344 793.042969 587.140625 C 793.207031 584.542969 794.035156 582.191406 795.132812 580.171875 C 797.371094 576.128906 800.554688 573.175781 804.023438 570.847656 C 807.527344 568.574219 811.410156 566.917969 815.605469 566.234375 C 817.703125 565.90625 819.886719 565.839844 822.074219 566.21875 C 824.25 566.589844 826.425781 567.453125 828.214844 568.839844 C 828.535156 569.085938 828.761719 569.363281 828.914062 569.644531 C 829.085938 569.660156 829.261719 569.683594 829.433594 569.722656 C 830.863281 570.050781 831.90625 571.167969 832.210938 572.503906 C 834.386719 582.105469 834.675781 591.480469 836.183594 600.523438 C 836.652344 603.699219 833.070312 604.78125 831.917969 601.554688 Z M 824.914062 572.929688 L 825.011719 572.496094 C 825.042969 572.359375 825.082031 572.226562 825.128906 572.097656 C 822.644531 570.984375 819.652344 571.097656 816.796875 571.914062 C 813.671875 572.804688 810.671875 574.457031 808.082031 576.503906 C 805.515625 578.566406 803.308594 581.101562 802.097656 583.722656 C 801.492188 585.027344 801.167969 586.328125 801.164062 587.476562 C 801.140625 587.769531 801.214844 588.039062 801.214844 588.320312 C 801.253906 588.589844 801.335938 588.847656 801.371094 589.117188 C 801.484375 589.375 801.546875 589.609375 801.65625 589.894531 L 802.125 590.875 C 802.769531 592.121094 803.542969 593.035156 804.179688 593.410156 C 804.328125 593.566406 804.503906 593.539062 804.644531 593.648438 C 804.804688 593.699219 804.964844 593.71875 805.132812 593.769531 C 805.5 593.777344 805.910156 593.820312 806.445312 593.683594 C 807.492188 593.476562 808.796875 592.882812 810.074219 592.070312 C 811.355469 591.253906 812.636719 590.230469 813.867188 589.109375 C 816.316406 586.835938 818.601562 584.183594 820.570312 581.363281 C 821.550781 579.957031 822.464844 578.503906 823.242188 577.042969 C 824.011719 575.601562 824.652344 574.066406 824.914062 572.929688 Z M 824.914062 572.929688 " fill-opacity="1" fill-rule="nonzero"/></g><g clip-path="url(#b458ad6167)"><path fill="#ed3a1a" d="M 434.886719 709.40625 L 434.589844 698.328125 C 434.453125 694.597656 434.25 690.828125 433.679688 686.972656 C 433.378906 685.042969 432.988281 683.085938 432.328125 681.085938 C 431.953125 679.992188 431.496094 678.859375 430.851562 677.738281 C 431.101562 677.621094 431.304688 677.460938 431.429688 677.257812 C 431.65625 676.894531 431.652344 676.410156 431.335938 675.859375 C 431.179688 675.582031 430.941406 675.289062 430.621094 674.992188 C 430.300781 674.699219 429.871094 674.472656 429.367188 674.226562 C 426.667969 673.039062 423.773438 672.457031 420.90625 672.28125 C 418.03125 672.109375 415.164062 672.335938 412.363281 672.84375 C 406.757812 673.859375 401.402344 676.015625 396.558594 679.128906 C 394.140625 680.699219 391.855469 682.535156 389.824219 684.710938 C 387.800781 686.882812 386.015625 689.417969 384.816406 692.347656 C 383.613281 695.257812 383.070312 698.59375 383.453125 701.847656 C 383.820312 705.101562 385.039062 708.175781 386.699219 710.785156 C 388.277344 713.253906 390.082031 715.660156 392.644531 717.757812 C 393.929688 718.792969 395.449219 719.730469 397.230469 720.328125 C 398.109375 720.640625 399.070312 720.816406 400.03125 720.917969 C 401 720.972656 401.984375 720.964844 402.921875 720.789062 C 404.824219 720.484375 406.5 719.726562 407.941406 718.84375 C 409.386719 717.949219 410.617188 716.914062 411.71875 715.832031 C 413.90625 713.65625 415.625 711.289062 417.160156 708.878906 C 420.207031 704.046875 422.507812 698.996094 424.539062 693.886719 C 425.566406 691.269531 426.515625 688.632812 427.390625 685.976562 C 427.5625 686.640625 427.722656 687.316406 427.863281 688.003906 C 428.550781 691.433594 428.960938 695.039062 429.316406 698.675781 C 429.671875 702.320312 429.964844 706.007812 430.351562 709.714844 C 430.753906 713.429688 431.199219 717.167969 432.128906 720.929688 C 432.800781 723.417969 434.125 724.363281 434.898438 724.050781 C 435.710938 723.722656 436.082031 722.421875 435.738281 720.167969 C 435.179688 716.691406 435.015625 713.054688 434.886719 709.40625 Z M 411.09375 704.992188 C 409.734375 707.089844 408.25 709.066406 406.628906 710.667969 C 405.015625 712.261719 403.230469 713.421875 401.722656 713.65625 C 400.964844 713.792969 400.253906 713.746094 399.484375 713.488281 C 398.71875 713.246094 397.894531 712.789062 397.085938 712.152344 C 395.464844 710.882812 393.921875 709.003906 392.589844 706.988281 C 391.332031 705.101562 390.507812 703.074219 390.203125 701.007812 C 389.898438 698.9375 390.144531 696.804688 390.90625 694.730469 C 392.429688 690.554688 395.863281 686.820312 399.847656 683.929688 C 403.863281 681.035156 408.511719 678.808594 413.386719 677.589844 C 416.691406 676.761719 420.15625 676.347656 423.488281 676.664062 C 421.929688 681.59375 420.128906 686.507812 418.121094 691.265625 C 416.078125 696.066406 413.8125 700.773438 411.09375 704.992188 Z M 519.476562 685.949219 C 511.632812 686.503906 503.957031 687.707031 496.257812 689.019531 C 496.980469 694.496094 497.519531 700.054688 497.644531 705.667969 C 497.773438 711.363281 497.472656 717.125 496.484375 722.769531 C 496.097656 724.675781 492.964844 724.359375 492.800781 722.515625 C 492.367188 711.71875 490.554688 701.125 489.113281 690.273438 C 481.71875 691.601562 474.289062 692.972656 466.738281 694.277344 C 465.21875 694.464844 464.25 691.46875 465.636719 690.753906 C 472.847656 687.421875 480.414062 684.8125 488.230469 683.128906 C 487.226562 674.191406 486.683594 665.050781 487.558594 655.925781 C 487.765625 654.316406 490.941406 654.347656 491.203125 655.890625 C 492.238281 664.589844 493.855469 673.167969 495.222656 681.894531 C 503.308594 680.789062 511.632812 680.730469 519.71875 682.316406 C 521.019531 682.625 520.730469 685.789062 519.476562 685.949219 Z M 597.273438 669.324219 C 595.976562 665.398438 594.304688 661.585938 592.207031 657.992188 C 590.113281 654.398438 587.5625 651.019531 584.441406 648.152344 C 581.332031 645.292969 577.578125 642.96875 573.414062 641.847656 C 572.929688 641.722656 572.484375 641.660156 572.082031 641.644531 C 572.074219 641.640625 572.066406 641.632812 572.058594 641.628906 C 571.320312 641.335938 570.082031 641.136719 568.574219 641.578125 C 566.339844 642.238281 564.378906 643.484375 562.738281 644.9375 C 561.097656 646.40625 559.722656 648.074219 558.527344 649.820312 C 556.144531 653.332031 554.4375 657.152344 553.089844 661.046875 C 551.746094 664.953125 550.785156 668.960938 550.144531 673.015625 C 549.488281 677.074219 549.175781 681.1875 549.179688 685.320312 C 549.203125 689.453125 549.558594 693.613281 550.390625 697.75 C 551.246094 701.875 552.558594 706 554.714844 709.875 C 556.847656 713.726562 559.960938 717.363281 564.078125 719.738281 C 566.117188 720.925781 568.363281 721.777344 570.644531 722.257812 C 572.941406 722.742188 575.222656 722.882812 577.511719 722.757812 C 579.804688 722.625 582.144531 722.171875 584.375 721.320312 C 586.601562 720.472656 588.699219 719.230469 590.5 717.695312 C 594.121094 714.597656 596.503906 710.546875 598.023438 706.453125 C 599.546875 702.335938 600.289062 698.09375 600.578125 693.894531 C 600.839844 689.691406 600.648438 685.511719 600.082031 681.402344 C 599.503906 677.292969 598.582031 673.25 597.273438 669.324219 Z M 593.855469 693.363281 C 593.5 697.046875 592.753906 700.660156 591.460938 703.949219 C 590.175781 707.226562 588.308594 710.152344 585.863281 712.199219 C 583.417969 714.234375 580.398438 715.339844 577.085938 715.519531 C 573.714844 715.707031 570.421875 715.089844 567.660156 713.5 C 564.878906 711.929688 562.570312 709.414062 560.820312 706.394531 C 559.0625 703.375 557.835938 699.910156 556.988281 696.3125 C 556.152344 692.707031 555.703125 688.957031 555.542969 685.183594 C 555.398438 681.402344 555.523438 677.589844 555.953125 673.808594 C 556.371094 670.023438 557.070312 666.269531 558.097656 662.625 C 559.128906 658.988281 560.476562 655.429688 562.339844 652.257812 C 564.191406 649.121094 566.640625 646.269531 569.71875 645.085938 C 570.140625 644.914062 570.511719 644.765625 570.855469 644.625 C 571.253906 644.871094 571.746094 645.113281 572.339844 645.328125 C 575.75 646.535156 578.773438 648.703125 581.304688 651.363281 C 583.847656 654.027344 585.933594 657.160156 587.632812 660.503906 C 589.335938 663.847656 590.679688 667.394531 591.691406 671.035156 C 592.714844 674.671875 593.402344 678.40625 593.78125 682.152344 C 594.15625 685.902344 594.191406 689.671875 593.855469 693.363281 Z M 690.988281 680.800781 C 686.371094 682.078125 681.59375 682.6875 676.867188 682.90625 C 672.132812 683.125 667.4375 682.949219 662.816406 682.59375 C 653.554688 681.886719 644.617188 680.40625 635.558594 679.738281 C 634.039062 679.542969 633.761719 676.410156 635.339844 676.054688 C 640.015625 675.179688 644.765625 674.839844 649.453125 674.796875 C 654.148438 674.753906 658.796875 675.007812 663.375 675.367188 C 672.546875 676.0625 681.445312 677.269531 690.464844 677.195312 C 691.742188 677.261719 692.296875 680.390625 690.988281 680.800781 Z M 688.324219 700.914062 C 679.601562 702.925781 670.671875 703.542969 661.867188 703.355469 C 653.050781 703.148438 644.324219 702.085938 635.671875 700.503906 C 634.222656 700.164062 634.355469 697.019531 635.839844 696.8125 C 644.632812 696.019531 653.375 695.894531 662.039062 696.105469 C 670.710938 696.300781 679.304688 696.886719 687.980469 697.285156 C 689.210938 697.410156 689.550781 700.566406 688.324219 700.914062 Z M 763.640625 707.371094 C 760.9375 697.75 759.574219 687.835938 760.605469 678.230469 C 760.808594 678.121094 760.984375 677.972656 761.113281 677.800781 C 761.371094 677.460938 761.453125 677.003906 761.257812 676.480469 C 761.160156 676.21875 760.996094 675.9375 760.753906 675.652344 C 760.742188 675.640625 760.730469 675.632812 760.722656 675.621094 C 760.449219 674.460938 759.519531 673.507812 758.277344 673.273438 C 757.574219 673.144531 756.882812 673.261719 756.292969 673.566406 C 755.074219 673.230469 753.835938 673.019531 752.605469 672.890625 C 750.175781 672.644531 747.75 672.726562 745.371094 673.023438 C 742.988281 673.3125 740.652344 673.839844 738.371094 674.554688 C 736.085938 675.265625 733.851562 676.15625 731.691406 677.242188 C 729.539062 678.347656 727.457031 679.648438 725.511719 681.222656 C 723.574219 682.804688 721.746094 684.664062 720.304688 686.988281 C 718.871094 689.289062 717.859375 692.195312 717.980469 695.257812 C 718.085938 698.328125 719.375 701.164062 720.976562 703.371094 C 722.5 705.398438 724.28125 707.390625 726.703125 708.960938 L 727.621094 709.535156 C 727.933594 709.71875 728.292969 709.855469 728.632812 710.015625 L 729.664062 710.464844 L 730.777344 710.78125 C 732.261719 711.214844 733.863281 711.277344 735.394531 711.160156 C 738.484375 710.832031 741.101562 709.5 743.261719 707.984375 C 745.433594 706.441406 747.222656 704.648438 748.816406 702.777344 C 751.527344 699.5625 753.675781 696.089844 755.5 692.480469 C 755.515625 692.578125 755.53125 692.675781 755.546875 692.773438 C 756.542969 698.222656 758.160156 703.480469 760.136719 708.539062 C 761.695312 712.226562 764.632812 711.085938 763.640625 707.371094 Z M 750.277344 687.625 C 748.34375 691.40625 746.058594 695.039062 743.378906 698.105469 C 742.046875 699.628906 740.605469 701.007812 739.101562 702.058594 C 737.601562 703.105469 736.050781 703.808594 734.644531 703.953125 C 733.246094 704.078125 731.917969 703.75 730.539062 702.890625 C 729.164062 702.035156 727.84375 700.691406 726.636719 699.160156 C 725.589844 697.765625 724.933594 696.335938 724.828125 694.886719 C 724.726562 693.441406 725.128906 691.886719 725.988281 690.347656 C 726.839844 688.808594 728.109375 687.328125 729.582031 686 C 731.054688 684.667969 732.730469 683.46875 734.511719 682.40625 C 738.097656 680.328125 742.070312 678.710938 746.171875 677.851562 C 748.21875 677.421875 750.300781 677.171875 752.347656 677.183594 C 753.011719 677.191406 753.671875 677.230469 754.324219 677.296875 C 753.960938 678.777344 753.453125 680.316406 752.878906 681.820312 C 752.121094 683.785156 751.242188 685.730469 750.277344 687.625 Z M 750.277344 687.625 " fill-opacity="1" fill-rule="nonzero"/></g></svg>