<svg xmlns="http://www.w3.org/2000/svg" xmlns:xlink="http://www.w3.org/1999/xlink" width="2000" zoomAndPan="magnify" viewBox="0 0 1500 1499.999933" height="2000" preserveAspectRatio="xMidYMid meet" version="1.0"><defs><clipPath id="64204edf19"><path d="M 907.53125 586.261719 L 932.863281 586.261719 L 932.863281 611.589844 L 907.53125 611.589844 Z M 907.53125 586.261719 " clip-rule="nonzero"/></clipPath><clipPath id="c1edaf8f09"><path d="M 920.195312 586.261719 C 913.203125 586.261719 907.53125 591.933594 907.53125 598.925781 C 907.53125 605.921875 913.203125 611.589844 920.195312 611.589844 C 927.191406 611.589844 932.863281 605.921875 932.863281 598.925781 C 932.863281 591.933594 927.191406 586.261719 920.195312 586.261719 Z M 920.195312 586.261719 " clip-rule="nonzero"/></clipPath><clipPath id="5726815011"><path d="M 0.53125 0.261719 L 25.863281 0.261719 L 25.863281 25.589844 L 0.53125 25.589844 Z M 0.53125 0.261719 " clip-rule="nonzero"/></clipPath><clipPath id="490357cbaa"><path d="M 13.195312 0.261719 C 6.203125 0.261719 0.53125 5.933594 0.53125 12.925781 C 0.53125 19.921875 6.203125 25.589844 13.195312 25.589844 C 20.191406 25.589844 25.863281 19.921875 25.863281 12.925781 C 25.863281 5.933594 20.191406 0.261719 13.195312 0.261719 Z M 13.195312 0.261719 " clip-rule="nonzero"/></clipPath><clipPath id="03054041a2"><rect x="0" width="26" y="0" height="26"/></clipPath><clipPath id="36a338c7f7"><path d="M 1090.195312 403.972656 L 1115.523438 403.972656 L 1115.523438 429.300781 L 1090.195312 429.300781 Z M 1090.195312 403.972656 " clip-rule="nonzero"/></clipPath><clipPath id="2dc422b3d4"><path d="M 1102.859375 403.972656 C 1095.863281 403.972656 1090.195312 409.640625 1090.195312 416.636719 C 1090.195312 423.628906 1095.863281 429.300781 1102.859375 429.300781 C 1109.851562 429.300781 1115.523438 423.628906 1115.523438 416.636719 C 1115.523438 409.640625 1109.851562 403.972656 1102.859375 403.972656 Z M 1102.859375 403.972656 " clip-rule="nonzero"/></clipPath><clipPath id="5b209304cc"><path d="M 0.195312 0.972656 L 25.523438 0.972656 L 25.523438 26.300781 L 0.195312 26.300781 Z M 0.195312 0.972656 " clip-rule="nonzero"/></clipPath><clipPath id="7d8ed1b325"><path d="M 12.859375 0.972656 C 5.863281 0.972656 0.195312 6.640625 0.195312 13.636719 C 0.195312 20.628906 5.863281 26.300781 12.859375 26.300781 C 19.851562 26.300781 25.523438 20.628906 25.523438 13.636719 C 25.523438 6.640625 19.851562 0.972656 12.859375 0.972656 Z M 12.859375 0.972656 " clip-rule="nonzero"/></clipPath><clipPath id="8e08528b8e"><rect x="0" width="26" y="0" height="27"/></clipPath></defs><path stroke-linecap="butt" transform="matrix(0, -0.75, 0.75, 0, 763.088944, 1490.599076)" fill="none" stroke-linejoin="miter" d="M 7.501893 7.501201 L 1964.262478 7.501201 " stroke="#ed3a1a" stroke-width="15" stroke-opacity="1" stroke-miterlimit="4"/><path stroke-linecap="round" transform="matrix(0, -0.75, 0.75, 0, 763.088944, 1490.599076)" fill="none" stroke-linejoin="round" d="M 37.501896 -14.998801 L 7.501893 7.501201 L 37.501896 30.001203 " stroke="#ed3a1a" stroke-width="15" stroke-opacity="1" stroke-miterlimit="4"/><path stroke-linecap="round" transform="matrix(0, -0.75, 0.75, 0, 763.088944, 1490.599076)" fill="none" stroke-linejoin="round" d="M 1934.262476 -14.998801 L 1964.262478 7.501201 L 1934.262476 30.001203 " stroke="#ed3a1a" stroke-width="15" stroke-opacity="1" stroke-miterlimit="4"/><path stroke-linecap="butt" transform="matrix(-0.75, 0, 0, -0.75, 1470.703851, 756.818123)" fill="none" stroke-linejoin="miter" d="M 7.500968 7.502289 L 1906.391757 7.502289 " stroke="#ed3a1a" stroke-width="15" stroke-opacity="1" stroke-miterlimit="4"/><path stroke-linecap="round" transform="matrix(-0.75, 0, 0, -0.75, 1470.703851, 756.818123)" fill="none" stroke-linejoin="round" d="M 37.500971 -14.997713 L 7.500968 7.502289 L 37.500971 30.002291 " stroke="#ed3a1a" stroke-width="15" stroke-opacity="1" stroke-miterlimit="4"/><path stroke-linecap="round" transform="matrix(-0.75, 0, 0, -0.75, 1470.703851, 756.818123)" fill="none" stroke-linejoin="round" d="M 1876.391754 -14.997713 L 1906.391757 7.502289 L 1876.391754 30.002291 " stroke="#ed3a1a" stroke-width="15" stroke-opacity="1" stroke-miterlimit="4"/><path stroke-linecap="butt" transform="matrix(0.530229, -0.530431, 0.530431, 0.530229, 93.320761, 1422.068306)" fill="none" stroke-linejoin="miter" d="M 4.500954 4.499081 L 2534.0653 4.500534 " stroke="#ed3a1a" stroke-width="9" stroke-opacity="1" stroke-miterlimit="4"/><path stroke-linecap="round" transform="matrix(0.530229, -0.530431, 0.530431, 0.530229, 93.320761, 1422.068306)" fill="none" stroke-linejoin="round" d="M 22.497913 -8.998824 L 4.500954 4.499081 L 22.49647 18.000137 " stroke="#ed3a1a" stroke-width="9" stroke-opacity="1" stroke-miterlimit="4"/><path stroke-linecap="round" transform="matrix(0.530229, -0.530431, 0.530431, 0.530229, 93.320761, 1422.068306)" fill="none" stroke-linejoin="round" d="M 2516.062418 -9.000523 L 2534.0653 4.500534 L 2516.060975 17.998438 " stroke="#ed3a1a" stroke-width="9" stroke-opacity="1" stroke-miterlimit="4"/><g clip-path="url(#64204edf19)"><g clip-path="url(#c1edaf8f09)"><g transform="matrix(1, 0, 0, 1, 907, 586)"><g clip-path="url(#03054041a2)"><g clip-path="url(#5726815011)"><g clip-path="url(#490357cbaa)"><path fill="#ed3a1a" d="M 0.53125 0.261719 L 25.863281 0.261719 L 25.863281 25.589844 L 0.53125 25.589844 Z M 0.53125 0.261719 " fill-opacity="1" fill-rule="nonzero"/></g></g></g></g></g></g><g clip-path="url(#36a338c7f7)"><g clip-path="url(#2dc422b3d4)"><g transform="matrix(1, 0, 0, 1, 1090, 403)"><g clip-path="url(#8e08528b8e)"><g clip-path="url(#5b209304cc)"><g clip-path="url(#7d8ed1b325)"><path fill="#ed3a1a" d="M 0.195312 0.972656 L 25.523438 0.972656 L 25.523438 26.300781 L 0.195312 26.300781 Z M 0.195312 0.972656 " fill-opacity="1" fill-rule="nonzero"/></g></g></g></g></g></g><path fill="#ed3a1a" d="M 1102.851562 601.925781 L 1084.851562 601.925781 L 1084.851562 595.925781 L 1102.851562 595.925781 M 1078.851562 601.925781 L 1060.851562 601.925781 L 1060.851562 595.925781 L 1078.851562 595.925781 M 1054.851562 601.925781 L 1036.851562 601.925781 L 1036.851562 595.925781 L 1054.851562 595.925781 M 1030.851562 601.925781 L 1012.851562 601.925781 L 1012.851562 595.925781 L 1030.851562 595.925781 M 1006.851562 601.925781 L 988.851562 601.925781 L 988.851562 595.925781 L 1006.851562 595.925781 M 982.851562 601.925781 L 964.851562 601.925781 L 964.851562 595.925781 L 982.851562 595.925781 M 958.851562 601.925781 L 940.851562 601.925781 L 940.851562 595.925781 L 958.851562 595.925781 M 934.851562 601.925781 L 927.40625 601.925781 L 927.40625 595.925781 L 934.851562 595.925781 " fill-opacity="1" fill-rule="nonzero"/><path fill="#ed3a1a" d="M 1099.855469 598.925781 L 1099.855469 580.925781 L 1105.855469 580.925781 L 1105.855469 598.925781 M 1099.855469 574.925781 L 1099.855469 556.925781 L 1105.855469 556.925781 L 1105.855469 574.925781 M 1099.855469 550.925781 L 1099.855469 532.925781 L 1105.855469 532.925781 L 1105.855469 550.925781 M 1099.855469 526.925781 L 1099.855469 508.925781 L 1105.855469 508.925781 L 1105.855469 526.925781 M 1099.855469 502.925781 L 1099.855469 484.925781 L 1105.855469 484.925781 L 1105.855469 502.925781 M 1099.855469 478.925781 L 1099.855469 460.925781 L 1105.855469 460.925781 L 1105.855469 478.925781 M 1099.855469 454.925781 L 1099.855469 436.925781 L 1105.855469 436.925781 L 1105.855469 454.925781 M 1099.855469 430.925781 L 1099.855469 428.929688 L 1105.855469 428.929688 L 1105.855469 430.925781 " fill-opacity="1" fill-rule="nonzero"/></svg>