<svg xmlns="http://www.w3.org/2000/svg" xmlns:xlink="http://www.w3.org/1999/xlink" width="2000" zoomAndPan="magnify" viewBox="0 0 1500 1499.999933" height="2000" preserveAspectRatio="xMidYMid meet" version="1.0"><defs><clipPath id="8cd11a2f42"><path d="M 0 260 L 530.878906 260 L 530.878906 307 L 0 307 Z M 0 260 " clip-rule="nonzero"/></clipPath><clipPath id="39393c79f6"><path d="M 0 0.0390625 L 514 0.0390625 L 514 568.839844 L 0 568.839844 Z M 0 0.0390625 " clip-rule="nonzero"/></clipPath><clipPath id="c9072b4234"><rect x="0" width="531" y="0" height="569"/></clipPath><clipPath id="199b852a0b"><path d="M 0 0.441406 L 493.679688 0.441406 L 493.679688 494.601562 L 0 494.601562 Z M 0 0.441406 " clip-rule="nonzero"/></clipPath><clipPath id="f044448750"><rect x="0" width="494" y="0" height="495"/></clipPath><clipPath id="32a3f61bbd"><path d="M 223.339844 0.488281 L 348.667969 0.488281 L 348.667969 125.816406 L 223.339844 125.816406 Z M 223.339844 0.488281 " clip-rule="nonzero"/></clipPath><clipPath id="1889a788fb"><path d="M 286.003906 0.488281 C 251.398438 0.488281 223.339844 28.546875 223.339844 63.152344 C 223.339844 97.761719 251.398438 125.816406 286.003906 125.816406 C 320.613281 125.816406 348.667969 97.761719 348.667969 63.152344 C 348.667969 28.546875 320.613281 0.488281 286.003906 0.488281 Z M 286.003906 0.488281 " clip-rule="nonzero"/></clipPath><clipPath id="e09198b466"><path d="M 0.339844 0.488281 L 125.667969 0.488281 L 125.667969 125.816406 L 0.339844 125.816406 Z M 0.339844 0.488281 " clip-rule="nonzero"/></clipPath><clipPath id="59a8673594"><path d="M 63.003906 0.488281 C 28.398438 0.488281 0.339844 28.546875 0.339844 63.152344 C 0.339844 97.761719 28.398438 125.816406 63.003906 125.816406 C 97.613281 125.816406 125.667969 97.761719 125.667969 63.152344 C 125.667969 28.546875 97.613281 0.488281 63.003906 0.488281 Z M 63.003906 0.488281 " clip-rule="nonzero"/></clipPath><clipPath id="e3f97c3722"><rect x="0" width="126" y="0" height="126"/></clipPath><clipPath id="a01a42e18c"><path d="M 2 242 L 569.160156 242 L 569.160156 290 L 2 290 Z M 2 242 " clip-rule="nonzero"/></clipPath><clipPath id="ad895d03ed"><path d="M 223.339844 405.589844 L 348.667969 405.589844 L 348.667969 530.917969 L 223.339844 530.917969 Z M 223.339844 405.589844 " clip-rule="nonzero"/></clipPath><clipPath id="215c55c657"><path d="M 286.003906 405.589844 C 251.398438 405.589844 223.339844 433.644531 223.339844 468.253906 C 223.339844 502.859375 251.398438 530.917969 286.003906 530.917969 C 320.613281 530.917969 348.667969 502.859375 348.667969 468.253906 C 348.667969 433.644531 320.613281 405.589844 286.003906 405.589844 Z M 286.003906 405.589844 " clip-rule="nonzero"/></clipPath><clipPath id="9038ce75f7"><path d="M 0.339844 0.589844 L 125.667969 0.589844 L 125.667969 125.917969 L 0.339844 125.917969 Z M 0.339844 0.589844 " clip-rule="nonzero"/></clipPath><clipPath id="bc0c6d48ac"><path d="M 63.003906 0.589844 C 28.398438 0.589844 0.339844 28.644531 0.339844 63.253906 C 0.339844 97.859375 28.398438 125.917969 63.003906 125.917969 C 97.613281 125.917969 125.667969 97.859375 125.667969 63.253906 C 125.667969 28.644531 97.613281 0.589844 63.003906 0.589844 Z M 63.003906 0.589844 " clip-rule="nonzero"/></clipPath><clipPath id="c63518f7db"><rect x="0" width="126" y="0" height="126"/></clipPath><clipPath id="1ff1e239a5"><rect x="0" width="570" y="0" height="532"/></clipPath></defs><path stroke-linecap="butt" transform="matrix(-0.75, 0, 0, -0.75, 1512.086615, 786.10316)" fill="none" stroke-linejoin="miter" d="M 0.000903479 31.502133 L 692.521796 31.502133 " stroke="#000000" stroke-width="63" stroke-opacity="1" stroke-miterlimit="4"/><g transform="matrix(1, 0, 0, 1, 0, 479)"><g clip-path="url(#c9072b4234)"><g clip-path="url(#8cd11a2f42)"><path stroke-linecap="butt" transform="matrix(-2.127884, -0.00000000371386, 0.00000000371386, -2.127884, 507.279302, 306.884952)" fill="none" stroke-linejoin="miter" d="M -0.000915606 11.000783 L 244.086929 11.000782 " stroke="#000000" stroke-width="22" stroke-opacity="1" stroke-miterlimit="4"/></g><g clip-path="url(#39393c79f6)"><path stroke-linecap="butt" transform="matrix(0.0125315, 2.127847, -2.127847, 0.0125315, 269.471348, 23.659898)" fill="none" stroke-linejoin="miter" d="M -0.0004046 10.99935 L 244.087994 10.999443 " stroke="#000000" stroke-width="22" stroke-opacity="1" stroke-miterlimit="4"/></g></g></g><g transform="matrix(1, 0, 0, 1, 486, 949)"><g clip-path="url(#f044448750)"><g clip-path="url(#199b852a0b)"><path stroke-linecap="butt" transform="matrix(-1.504641, 1.504641, -1.504641, -1.504641, 477.00523, 50.584426)" fill="none" stroke-linejoin="miter" d="M 0.000942334 10.999756 L 283.742766 10.999756 " stroke="#000000" stroke-width="22" stroke-opacity="1" stroke-miterlimit="4"/><path stroke-linecap="butt" transform="matrix(-1.504641, -1.504641, 1.504641, -1.504641, 443.903089, 477.502905)" fill="none" stroke-linejoin="miter" d="M -0.0000849422 10.999238 L 283.743037 11.000536 " stroke="#000000" stroke-width="22" stroke-opacity="1" stroke-miterlimit="4"/></g></g></g><g transform="matrix(1, 0, 0, 1, 447, 73)"><g clip-path="url(#1ff1e239a5)"><g clip-path="url(#32a3f61bbd)"><g clip-path="url(#1889a788fb)"><g transform="matrix(1, 0, 0, 1, 223, 0.000000000000113687)"><g clip-path="url(#e3f97c3722)"><g clip-path="url(#e09198b466)"><g clip-path="url(#59a8673594)"><path fill="#000000" d="M 0.339844 0.488281 L 125.667969 0.488281 L 125.667969 125.816406 L 0.339844 125.816406 Z M 0.339844 0.488281 " fill-opacity="1" fill-rule="nonzero"/></g></g></g></g></g></g><g clip-path="url(#a01a42e18c)"><path stroke-linecap="butt" transform="matrix(-2.127884, -0.00000000371386, 0.00000000371386, -2.127884, 545.679212, 289.10988)" fill="none" stroke-linejoin="miter" d="M -0.000223514 11.000014 L 244.087621 11.000014 " stroke="#000000" stroke-width="22" stroke-opacity="1" stroke-miterlimit="4"/></g><g clip-path="url(#ad895d03ed)"><g clip-path="url(#215c55c657)"><g transform="matrix(1, 0, 0, 1, 223, 405)"><g clip-path="url(#c63518f7db)"><g clip-path="url(#9038ce75f7)"><g clip-path="url(#bc0c6d48ac)"><path fill="#000000" d="M 0.339844 0.589844 L 125.667969 0.589844 L 125.667969 125.917969 L 0.339844 125.917969 Z M 0.339844 0.589844 " fill-opacity="1" fill-rule="nonzero"/></g></g></g></g></g></g></g></g></svg>